<?xml version="1.0" encoding="UTF-8" standalone="no"?><!DOCTYPE svg PUBLIC "-//W3C//DTD SVG 1.1//EN" "http://www.w3.org/Graphics/SVG/1.1/DTD/svg11.dtd"><svg width="100%" height="100%" viewBox="0 0 5497 778" version="1.1" xmlns="http://www.w3.org/2000/svg" xmlns:xlink="http://www.w3.org/1999/xlink" xml:space="preserve" xmlns:serif="http://www.serif.com/" style="fill-rule:evenodd;clip-rule:evenodd;stroke-linecap:round;stroke-linejoin:round;stroke-miterlimit:1.5;"><g><rect x="13.021" y="16.902" width="5470.83" height="225" style="stroke:#000;stroke-width:26.04px;"/><path d="M5483.85,248.152l0,485.417c0,8.288 -3.292,16.236 -9.153,22.097c-5.86,5.86 -13.809,9.153 -22.097,9.153l-5408.33,-0c-8.288,-0 -16.237,-3.293 -22.097,-9.153c-5.861,-5.861 -9.153,-13.809 -9.153,-22.097l-0,-485.417l5470.83,0Z" style="fill:#fff;stroke:#000;stroke-width:26.04px;"/><path d="M4557.8,183.496c-1.458,-0 -2.812,-0.391 -4.062,-1.172c-1.25,-0.782 -1.875,-1.953 -1.875,-3.516l-0,-105c-0,-1.562 0.703,-2.708 2.109,-3.437c1.406,-0.73 2.891,-1.094 4.453,-1.094c1.667,-0 3.177,0.364 4.531,1.094c1.354,0.729 2.032,1.875 2.032,3.437l-0,97.813l42.812,-0c1.458,-0 2.526,0.598 3.203,1.796c0.677,1.198 1.016,2.579 1.016,4.141c-0,1.458 -0.339,2.813 -1.016,4.063c-0.677,1.25 -1.745,1.875 -3.203,1.875l-50,-0Z" style="fill:#fff;fill-rule:nonzero;"/><path d="M4652.64,184.746c-6.771,-0 -12.761,-1.277 -17.969,-3.829c-5.208,-2.552 -9.323,-6.093 -12.344,-10.625c-3.021,-4.531 -4.531,-9.817 -4.531,-15.859l0,-16.406c0,-5.313 1.432,-10.209 4.297,-14.688c2.864,-4.479 6.641,-8.073 11.328,-10.781c4.688,-2.708 9.844,-4.062 15.469,-4.062c5.416,-0 10.39,1.25 14.922,3.75c4.531,2.5 8.177,5.885 10.937,10.156c2.761,4.271 4.141,9.219 4.141,14.844c-0,4.166 -0.677,7.161 -2.031,8.984c-1.355,1.823 -3.073,2.943 -5.157,3.359c-2.083,0.417 -4.271,0.625 -6.562,0.625l-34.375,0l-0,4.688c-0,5.833 2.083,10.442 6.25,13.828c4.166,3.385 9.531,5.078 16.094,5.078c3.854,0 6.927,-0.521 9.218,-1.562c2.292,-1.042 4.167,-2.058 5.625,-3.047c1.459,-0.99 2.761,-1.485 3.907,-1.485c1.145,0 2.109,0.339 2.89,1.016c0.781,0.677 1.38,1.484 1.797,2.422c0.417,0.937 0.625,1.771 0.625,2.5c0,1.354 -0.99,2.89 -2.969,4.609c-1.979,1.719 -4.817,3.229 -8.515,4.531c-3.698,1.302 -8.047,1.954 -13.047,1.954Zm-21.875,-43.282l28.906,0c2.813,0 4.661,-0.338 5.547,-1.015c0.885,-0.677 1.328,-2.006 1.328,-3.985c0,-3.125 -0.755,-6.015 -2.266,-8.672c-1.51,-2.656 -3.619,-4.817 -6.328,-6.484c-2.708,-1.667 -5.781,-2.5 -9.218,-2.5c-3.23,0 -6.198,0.755 -8.907,2.266c-2.708,1.51 -4.896,3.567 -6.562,6.172c-1.667,2.604 -2.5,5.468 -2.5,8.593l-0,5.625Z" style="fill:#fff;fill-rule:nonzero;"/><path d="M4709.52,184.746c-5.834,-0 -10.808,-1.693 -14.922,-5.079c-4.115,-3.385 -6.172,-8.619 -6.172,-15.703c0,-5.729 1.563,-10.182 4.688,-13.359c3.125,-3.177 7.421,-5.365 12.89,-6.563c5.469,-1.198 11.797,-1.796 18.985,-1.796l7.5,-0l-0,-3.282c-0,-3.125 -0.573,-6.172 -1.719,-9.14c-1.146,-2.969 -2.943,-5.417 -5.391,-7.344c-2.448,-1.927 -5.807,-2.891 -10.078,-2.891c-3.646,0 -6.536,0.365 -8.672,1.094c-2.135,0.729 -3.828,1.484 -5.078,2.266c-1.25,0.781 -2.344,1.172 -3.281,1.172c-1.563,-0 -2.761,-0.756 -3.594,-2.266c-0.833,-1.511 -1.25,-2.943 -1.25,-4.297c0,-1.667 1.146,-3.177 3.438,-4.531c2.291,-1.354 5.156,-2.448 8.593,-3.281c3.438,-0.834 6.823,-1.25 10.157,-1.25c7.291,-0 13.125,1.458 17.5,4.375c4.375,2.916 7.526,6.666 9.453,11.25c1.927,4.583 2.89,9.479 2.89,14.687l0,40c0,1.25 -0.599,2.344 -1.797,3.281c-1.198,0.938 -2.734,1.407 -4.609,1.407c-1.667,-0 -3.073,-0.469 -4.219,-1.407c-1.146,-0.937 -1.718,-2.031 -1.718,-3.281l-0,-6.25c-2.709,3.125 -5.99,5.938 -9.844,8.438c-3.854,2.5 -8.438,3.75 -13.75,3.75Zm4.062,-10.469c3.021,-0 5.964,-0.834 8.828,-2.5c2.865,-1.667 5.261,-3.75 7.188,-6.25c1.927,-2.5 2.891,-4.896 2.891,-7.188l-0,-8.125l-5.469,0c-4.375,0 -8.516,0.261 -12.422,0.782c-3.906,0.52 -7.057,1.64 -9.453,3.359c-2.396,1.719 -3.594,4.453 -3.594,8.203c0,4.063 1.146,7.031 3.438,8.906c2.291,1.875 5.156,2.813 8.593,2.813Z" style="fill:#fff;fill-rule:nonzero;"/><path d="M4769.36,183.496c-1.771,-0 -3.256,-0.495 -4.454,-1.485c-1.198,-0.989 -1.796,-2.057 -1.796,-3.203l-0,-64.844c-0,-1.354 0.598,-2.448 1.796,-3.281c1.198,-0.833 2.683,-1.25 4.454,-1.25c1.77,0 3.229,0.417 4.375,1.25c1.145,0.833 1.718,1.927 1.718,3.281l0,7.344c1.146,-2.187 2.709,-4.245 4.688,-6.172c1.979,-1.927 4.297,-3.515 6.953,-4.765c2.656,-1.25 5.599,-1.875 8.828,-1.875l5.313,-0c1.354,-0 2.526,0.572 3.515,1.718c0.99,1.146 1.485,2.552 1.485,4.219c-0,1.563 -0.495,2.917 -1.485,4.063c-0.989,1.145 -2.161,1.718 -3.515,1.718l-5.313,0c-3.333,0 -6.51,0.938 -9.531,2.813c-3.021,1.875 -5.495,4.505 -7.422,7.89c-1.927,3.386 -2.891,7.474 -2.891,12.266l0,35.625c0,1.146 -0.651,2.214 -1.953,3.203c-1.302,0.99 -2.89,1.485 -4.765,1.485Z" style="fill:#fff;fill-rule:nonzero;"/><path d="M4822.96,183.496c-1.875,-0 -3.411,-0.495 -4.609,-1.485c-1.198,-0.989 -1.797,-2.057 -1.797,-3.203l0,-64.844c0,-1.354 0.599,-2.448 1.797,-3.281c1.198,-0.833 2.734,-1.25 4.609,-1.25c1.667,0 3.073,0.417 4.219,1.25c1.146,0.833 1.719,1.927 1.719,3.281l-0,6.407c1.666,-3.021 4.271,-5.756 7.812,-8.204c3.542,-2.448 7.917,-3.671 13.125,-3.671c5,-0 9.584,1.38 13.75,4.14c4.167,2.761 7.5,6.38 10,10.86c2.5,4.479 3.75,9.479 3.75,15l0,40.312c0,1.563 -0.677,2.734 -2.031,3.516c-1.354,0.781 -2.865,1.172 -4.531,1.172c-1.563,-0 -3.021,-0.391 -4.375,-1.172c-1.354,-0.782 -2.031,-1.953 -2.031,-3.516l-0,-40.312c-0,-3.021 -0.808,-5.938 -2.422,-8.75c-1.615,-2.813 -3.776,-5.105 -6.485,-6.875c-2.708,-1.771 -5.677,-2.657 -8.906,-2.657c-2.812,0 -5.521,0.755 -8.125,2.266c-2.604,1.51 -4.74,3.594 -6.406,6.25c-1.667,2.656 -2.5,5.911 -2.5,9.766l-0,40.312c-0,1.146 -0.651,2.214 -1.953,3.203c-1.302,0.99 -2.839,1.485 -4.61,1.485Z" style="fill:#fff;fill-rule:nonzero;"/><path d="M4901.39,89.121c-2.188,-0 -4.089,-0.756 -5.703,-2.266c-1.615,-1.511 -2.422,-3.255 -2.422,-5.234c-0,-1.98 0.807,-3.698 2.422,-5.157c1.614,-1.458 3.515,-2.187 5.703,-2.187c2.291,-0 4.192,0.729 5.703,2.187c1.51,1.459 2.266,3.177 2.266,5.157c-0,1.979 -0.756,3.723 -2.266,5.234c-1.511,1.51 -3.412,2.266 -5.703,2.266Zm-0,94.375c-1.875,-0 -3.412,-0.495 -4.61,-1.485c-1.198,-0.989 -1.796,-2.057 -1.796,-3.203l-0,-64.844c-0,-1.354 0.598,-2.448 1.796,-3.281c1.198,-0.833 2.735,-1.25 4.61,-1.25c1.771,0 3.307,0.417 4.609,1.25c1.302,0.833 1.953,1.927 1.953,3.281l0,64.844c0,1.146 -0.651,2.214 -1.953,3.203c-1.302,0.99 -2.838,1.485 -4.609,1.485Z" style="fill:#fff;fill-rule:nonzero;"/><path d="M4932.64,183.496c-1.875,-0 -3.412,-0.495 -4.61,-1.485c-1.198,-0.989 -1.796,-2.057 -1.796,-3.203l-0,-64.844c-0,-1.354 0.598,-2.448 1.796,-3.281c1.198,-0.833 2.735,-1.25 4.61,-1.25c1.666,0 3.073,0.417 4.219,1.25c1.145,0.833 1.718,1.927 1.718,3.281l0,6.407c1.667,-3.021 4.271,-5.756 7.813,-8.204c3.541,-2.448 7.916,-3.671 13.125,-3.671c5,-0 9.583,1.38 13.75,4.14c4.166,2.761 7.5,6.38 10,10.86c2.5,4.479 3.75,9.479 3.75,15l-0,40.312c-0,1.563 -0.677,2.734 -2.031,3.516c-1.355,0.781 -2.865,1.172 -4.532,1.172c-1.562,-0 -3.021,-0.391 -4.375,-1.172c-1.354,-0.782 -2.031,-1.953 -2.031,-3.516l0,-40.312c0,-3.021 -0.807,-5.938 -2.422,-8.75c-1.614,-2.813 -3.776,-5.105 -6.484,-6.875c-2.709,-1.771 -5.677,-2.657 -8.906,-2.657c-2.813,0 -5.521,0.755 -8.125,2.266c-2.605,1.51 -4.74,3.594 -6.407,6.25c-1.666,2.656 -2.5,5.911 -2.5,9.766l0,40.312c0,1.146 -0.651,2.214 -1.953,3.203c-1.302,0.99 -2.838,1.485 -4.609,1.485Z" style="fill:#fff;fill-rule:nonzero;"/><path d="M5031.71,219.277c-6.146,-0 -11.666,-0.86 -16.562,-2.578c-4.896,-1.719 -8.776,-4.167 -11.641,-7.344c-2.864,-3.177 -4.297,-6.901 -4.297,-11.172c0,-4.375 1.276,-7.943 3.828,-10.703c2.552,-2.761 5.495,-4.87 8.829,-6.328c-2.292,-0.834 -4.193,-2.058 -5.704,-3.672c-1.51,-1.615 -2.265,-3.88 -2.265,-6.797c-0,-2.917 0.729,-5.234 2.187,-6.953c1.459,-1.719 3.334,-3.255 5.625,-4.609c-2.812,-2.292 -5,-5.131 -6.562,-8.516c-1.563,-3.386 -2.344,-7.109 -2.344,-11.172l0,-5.156c0,-5.104 1.146,-9.584 3.438,-13.438c2.291,-3.854 5.546,-6.875 9.765,-9.062c4.219,-2.188 9.141,-3.281 14.766,-3.281c3.646,-0 7.005,0.546 10.078,1.64c3.073,1.094 5.755,2.578 8.047,4.453c1.666,-3.437 3.411,-5.989 5.234,-7.656c1.823,-1.667 3.62,-2.5 5.391,-2.5c1.875,0 3.281,0.521 4.219,1.563c0.937,1.041 1.406,2.135 1.406,3.281c-0,0.833 -0.261,1.562 -0.781,2.187c-0.521,0.625 -1.146,1.094 -1.875,1.407c-1.146,0.312 -2.474,0.937 -3.985,1.875c-1.51,0.937 -2.943,2.5 -4.297,4.687c1.563,1.979 2.735,4.245 3.516,6.797c0.781,2.552 1.172,5.234 1.172,8.047l-0,5.156c-0,4.896 -1.198,9.323 -3.594,13.281c-2.396,3.959 -5.729,7.058 -10,9.297c-4.271,2.24 -9.167,3.36 -14.687,3.36c-4.271,-0 -8.073,-0.782 -11.407,-2.344c-1.041,0.625 -1.979,1.328 -2.812,2.109c-0.834,0.781 -1.25,1.849 -1.25,3.203c-0,2.188 1.172,3.75 3.515,4.688c2.344,0.937 5.339,1.614 8.985,2.031c3.646,0.417 7.5,0.885 11.562,1.406c4.063,0.521 7.917,1.433 11.563,2.735c3.646,1.302 6.64,3.307 8.984,6.015c2.344,2.709 3.516,6.459 3.516,11.25c-0,5.104 -1.406,9.349 -4.219,12.735c-2.812,3.385 -6.589,5.911 -11.328,7.578c-4.74,1.666 -10.078,2.5 -16.016,2.5Zm-0.312,-9.063c5.937,0 10.625,-1.224 14.062,-3.672c3.438,-2.448 5.157,-5.703 5.157,-9.765c-0,-2.917 -0.886,-5.183 -2.657,-6.797c-1.771,-1.615 -4.062,-2.813 -6.875,-3.594c-2.812,-0.781 -5.755,-1.302 -8.828,-1.562c-3.073,-0.261 -5.859,-0.547 -8.359,-0.86c-3.334,1.042 -6.224,2.604 -8.672,4.688c-2.448,2.083 -3.672,4.791 -3.672,8.125c0,4.062 1.823,7.317 5.469,9.765c3.646,2.448 8.437,3.672 14.375,3.672Zm-0.469,-53.75c4.792,0 8.542,-1.614 11.25,-4.843c2.708,-3.23 4.063,-7.292 4.063,-12.188l-0,-5.156c-0,-4.792 -1.355,-8.802 -4.063,-12.031c-2.708,-3.23 -6.51,-4.844 -11.406,-4.844c-4.896,-0 -8.672,1.614 -11.328,4.844c-2.657,3.229 -3.985,7.239 -3.985,12.031l0,5c0,4.896 1.354,8.984 4.063,12.265c2.708,3.282 6.51,4.922 11.406,4.922Z" style="fill:#fff;fill-rule:nonzero;"/><path d="M5116.08,183.496c-1.562,-0 -3.047,-0.391 -4.453,-1.172c-1.406,-0.782 -2.109,-1.953 -2.109,-3.516l-0,-105c-0,-1.562 0.703,-2.708 2.109,-3.437c1.406,-0.73 2.891,-1.094 4.453,-1.094c1.667,-0 3.177,0.364 4.532,1.094c1.354,0.729 2.031,1.875 2.031,3.437l-0,45l42.344,0l-0,-45c-0,-1.562 0.703,-2.708 2.109,-3.437c1.406,-0.73 2.891,-1.094 4.453,-1.094c1.667,-0 3.177,0.364 4.531,1.094c1.354,0.729 2.032,1.875 2.032,3.437l-0,105c-0,1.563 -0.678,2.734 -2.032,3.516c-1.354,0.781 -2.864,1.172 -4.531,1.172c-1.562,-0 -3.047,-0.391 -4.453,-1.172c-1.406,-0.782 -2.109,-1.953 -2.109,-3.516l-0,-49.062l-42.344,-0l-0,49.062c-0,1.563 -0.677,2.734 -2.031,3.516c-1.355,0.781 -2.865,1.172 -4.532,1.172Z" style="fill:#fff;fill-rule:nonzero;"/><path d="M5204.21,183.496c-1.771,-0 -3.255,-0.495 -4.453,-1.485c-1.198,-0.989 -1.797,-2.057 -1.797,-3.203l0,-64.844c0,-1.354 0.599,-2.448 1.797,-3.281c1.198,-0.833 2.682,-1.25 4.453,-1.25c1.771,0 3.229,0.417 4.375,1.25c1.146,0.833 1.719,1.927 1.719,3.281l0,7.344c1.146,-2.187 2.708,-4.245 4.688,-6.172c1.979,-1.927 4.296,-3.515 6.953,-4.765c2.656,-1.25 5.599,-1.875 8.828,-1.875l5.312,-0c1.354,-0 2.526,0.572 3.516,1.718c0.989,1.146 1.484,2.552 1.484,4.219c0,1.563 -0.495,2.917 -1.484,4.063c-0.99,1.145 -2.162,1.718 -3.516,1.718l-5.312,0c-3.334,0 -6.511,0.938 -9.531,2.813c-3.021,1.875 -5.495,4.505 -7.422,7.89c-1.927,3.386 -2.891,7.474 -2.891,12.266l0,35.625c0,1.146 -0.651,2.214 -1.953,3.203c-1.302,0.99 -2.891,1.485 -4.766,1.485Z" style="fill:#fff;fill-rule:nonzero;"/><path d="M5272.02,184.746c-5,-0 -9.427,-0.652 -13.281,-1.954c-3.855,-1.302 -6.875,-2.838 -9.063,-4.609c-2.187,-1.771 -3.281,-3.542 -3.281,-5.312c-0,-0.834 0.208,-1.693 0.625,-2.579c0.416,-0.885 0.963,-1.666 1.64,-2.343c0.677,-0.677 1.433,-1.016 2.266,-1.016c1.25,0 2.604,0.599 4.063,1.797c1.458,1.198 3.437,2.422 5.937,3.672c2.5,1.25 6.094,1.875 10.781,1.875c5.521,-0 9.375,-1.016 11.563,-3.047c2.187,-2.031 3.281,-4.297 3.281,-6.797c0,-3.229 -0.937,-5.703 -2.812,-7.422c-1.875,-1.719 -4.271,-3.073 -7.188,-4.062c-2.917,-0.99 -5.99,-1.953 -9.219,-2.891c-3.229,-0.937 -6.302,-2.109 -9.218,-3.516c-2.917,-1.406 -5.287,-3.385 -7.11,-5.937c-1.823,-2.552 -2.734,-5.964 -2.734,-10.234c-0,-3.438 0.833,-6.823 2.5,-10.157c1.666,-3.333 4.375,-6.12 8.125,-8.359c3.75,-2.24 8.75,-3.359 15,-3.359c3.646,-0 7.161,0.39 10.547,1.171c3.385,0.782 6.145,1.823 8.281,3.125c2.135,1.302 3.203,2.683 3.203,4.141c0,0.625 -0.208,1.458 -0.625,2.5c-0.417,1.042 -0.99,1.979 -1.719,2.813c-0.729,0.833 -1.666,1.25 -2.812,1.25c-0.834,-0 -2.005,-0.391 -3.516,-1.172c-1.51,-0.782 -3.333,-1.537 -5.469,-2.266c-2.135,-0.729 -4.713,-1.094 -7.734,-1.094c-3.437,0 -6.198,0.599 -8.281,1.797c-2.084,1.198 -3.594,2.604 -4.531,4.219c-0.938,1.614 -1.407,3.255 -1.407,4.922c0,2.604 0.912,4.635 2.735,6.094c1.823,1.458 4.218,2.63 7.187,3.515c2.969,0.886 6.068,1.771 9.297,2.656c3.229,0.886 6.302,2.136 9.219,3.75c2.916,1.615 5.312,3.829 7.187,6.641c1.875,2.813 2.813,6.563 2.813,11.25c-0,6.354 -2.292,11.432 -6.875,15.234c-4.584,3.802 -11.042,5.704 -19.375,5.704Z" style="fill:#fff;fill-rule:nonzero;"/><path d="M3518.34,183.496c-1.458,-0 -2.812,-0.391 -4.062,-1.172c-1.25,-0.782 -1.875,-1.953 -1.875,-3.516l-0,-104.844c-0,-1.562 0.625,-2.734 1.875,-3.515c1.25,-0.782 2.604,-1.172 4.062,-1.172l55.625,-0c1.667,-0 2.839,0.625 3.516,1.875c0.677,1.25 1.016,2.552 1.016,3.906c-0,1.563 -0.391,2.969 -1.172,4.219c-0.782,1.25 -1.901,1.875 -3.36,1.875l-48.437,-0l-0,39.687l24.375,0c1.458,0 2.578,0.573 3.359,1.719c0.781,1.146 1.172,2.448 1.172,3.906c0,1.25 -0.338,2.448 -1.016,3.594c-0.677,1.146 -1.848,1.719 -3.515,1.719l-24.375,-0l-0,39.844l48.437,-0c1.459,-0 2.578,0.598 3.36,1.796c0.781,1.198 1.172,2.631 1.172,4.297c-0,1.354 -0.339,2.657 -1.016,3.907c-0.677,1.25 -1.849,1.875 -3.516,1.875l-55.625,-0Z" style="fill:#fff;fill-rule:nonzero;"/><path d="M3593.19,184.746c-0.937,-0 -2.031,-0.339 -3.281,-1.016c-1.25,-0.677 -2.344,-1.511 -3.281,-2.5c-0.938,-0.99 -1.407,-1.953 -1.407,-2.891c0,-0.937 0.313,-1.823 0.938,-2.656l20,-29.687l-19.375,-28.438c-0.208,-0.312 -0.417,-0.703 -0.625,-1.172c-0.208,-0.469 -0.313,-0.911 -0.313,-1.328c0,-1.042 0.469,-2.057 1.407,-3.047c0.937,-0.989 2.031,-1.823 3.281,-2.5c1.25,-0.677 2.448,-1.015 3.594,-1.015c0.52,-0 1.119,0.13 1.796,0.39c0.678,0.261 1.224,0.755 1.641,1.485l17.344,26.875l17.5,-26.875c0.312,-0.625 0.807,-1.094 1.484,-1.407c0.677,-0.312 1.328,-0.468 1.953,-0.468c1.042,-0 2.214,0.312 3.516,0.937c1.302,0.625 2.396,1.458 3.281,2.5c0.886,1.042 1.328,2.083 1.328,3.125c0,0.729 -0.312,1.563 -0.937,2.5l-19.531,28.438l20.312,29.687c0.208,0.313 0.391,0.703 0.547,1.172c0.156,0.469 0.234,0.963 0.234,1.484c0,0.834 -0.442,1.771 -1.328,2.813c-0.885,1.041 -1.927,1.901 -3.125,2.578c-1.198,0.677 -2.422,1.016 -3.672,1.016c-0.625,-0 -1.25,-0.157 -1.875,-0.469c-0.625,-0.313 -1.145,-0.781 -1.562,-1.406l-18.125,-27.657l-17.969,27.657c-0.417,0.625 -0.989,1.093 -1.719,1.406c-0.729,0.312 -1.406,0.469 -2.031,0.469Z" style="fill:#fff;fill-rule:nonzero;"/><path d="M3663.81,219.277c-1.771,-0 -3.255,-0.495 -4.453,-1.485c-1.198,-0.989 -1.797,-2.057 -1.797,-3.203l0,-100.625c0,-1.354 0.599,-2.448 1.797,-3.281c1.198,-0.833 2.682,-1.25 4.453,-1.25c1.771,0 3.229,0.417 4.375,1.25c1.146,0.833 1.719,1.927 1.719,3.281l-0,6.407c1.771,-3.021 4.427,-5.756 7.969,-8.204c3.541,-2.448 7.864,-3.671 12.968,-3.671c5.209,-0 9.948,1.38 14.219,4.14c4.271,2.761 7.656,6.38 10.156,10.86c2.5,4.479 3.75,9.479 3.75,15l0,15.937c0,5.208 -1.276,10.13 -3.828,14.766c-2.552,4.635 -5.911,8.385 -10.078,11.25c-4.167,2.864 -8.75,4.297 -13.75,4.297c-4.687,-0 -8.906,-1.224 -12.656,-3.672c-3.75,-2.448 -6.458,-5.287 -8.125,-8.516l-0,42.031c-0,1.146 -0.651,2.214 -1.953,3.203c-1.302,0.99 -2.891,1.485 -4.766,1.485Zm24.375,-46.25c3.125,-0 6.042,-0.886 8.75,-2.656c2.708,-1.771 4.896,-4.115 6.563,-7.032c1.666,-2.916 2.5,-5.885 2.5,-8.906l-0,-15.937c-0,-3.021 -0.834,-5.938 -2.5,-8.75c-1.667,-2.813 -3.855,-5.105 -6.563,-6.875c-2.708,-1.771 -5.729,-2.657 -9.062,-2.657c-2.813,0 -5.547,0.755 -8.204,2.266c-2.656,1.51 -4.843,3.594 -6.562,6.25c-1.719,2.656 -2.578,5.911 -2.578,9.766l-0,20.156c-0,1.354 0.755,3.177 2.265,5.469c1.511,2.291 3.594,4.348 6.25,6.171c2.657,1.823 5.704,2.735 9.141,2.735Z" style="fill:#fff;fill-rule:nonzero;"/><path d="M3766.62,184.746c-6.771,-0 -12.761,-1.277 -17.969,-3.829c-5.208,-2.552 -9.323,-6.093 -12.344,-10.625c-3.021,-4.531 -4.531,-9.817 -4.531,-15.859l-0,-16.406c-0,-5.313 1.432,-10.209 4.297,-14.688c2.864,-4.479 6.64,-8.073 11.328,-10.781c4.687,-2.708 9.844,-4.062 15.469,-4.062c5.416,-0 10.39,1.25 14.921,3.75c4.532,2.5 8.178,5.885 10.938,10.156c2.76,4.271 4.141,9.219 4.141,14.844c-0,4.166 -0.677,7.161 -2.032,8.984c-1.354,1.823 -3.073,2.943 -5.156,3.359c-2.083,0.417 -4.271,0.625 -6.562,0.625l-34.375,0l-0,4.688c-0,5.833 2.083,10.442 6.25,13.828c4.166,3.385 9.531,5.078 16.093,5.078c3.855,0 6.927,-0.521 9.219,-1.562c2.292,-1.042 4.167,-2.058 5.625,-3.047c1.458,-0.99 2.761,-1.485 3.906,-1.485c1.146,0 2.11,0.339 2.891,1.016c0.781,0.677 1.38,1.484 1.797,2.422c0.417,0.937 0.625,1.771 0.625,2.5c-0,1.354 -0.99,2.89 -2.969,4.609c-1.979,1.719 -4.818,3.229 -8.516,4.531c-3.697,1.302 -8.046,1.954 -13.046,1.954Zm-21.875,-43.282l28.906,0c2.812,0 4.661,-0.338 5.547,-1.015c0.885,-0.677 1.328,-2.006 1.328,-3.985c-0,-3.125 -0.755,-6.015 -2.266,-8.672c-1.51,-2.656 -3.62,-4.817 -6.328,-6.484c-2.708,-1.667 -5.781,-2.5 -9.219,-2.5c-3.229,0 -6.198,0.755 -8.906,2.266c-2.708,1.51 -4.896,3.567 -6.562,6.172c-1.667,2.604 -2.5,5.468 -2.5,8.593l-0,5.625Z" style="fill:#fff;fill-rule:nonzero;"/><path d="M3813.5,183.496c-1.771,-0 -3.256,-0.495 -4.454,-1.485c-1.197,-0.989 -1.796,-2.057 -1.796,-3.203l-0,-64.844c-0,-1.354 0.599,-2.448 1.796,-3.281c1.198,-0.833 2.683,-1.25 4.454,-1.25c1.77,0 3.229,0.417 4.375,1.25c1.145,0.833 1.718,1.927 1.718,3.281l0,7.344c1.146,-2.187 2.709,-4.245 4.688,-6.172c1.979,-1.927 4.297,-3.515 6.953,-4.765c2.656,-1.25 5.599,-1.875 8.828,-1.875l5.313,-0c1.354,-0 2.526,0.572 3.515,1.718c0.99,1.146 1.485,2.552 1.485,4.219c-0,1.563 -0.495,2.917 -1.485,4.063c-0.989,1.145 -2.161,1.718 -3.515,1.718l-5.313,0c-3.333,0 -6.51,0.938 -9.531,2.813c-3.021,1.875 -5.495,4.505 -7.422,7.89c-1.927,3.386 -2.891,7.474 -2.891,12.266l0,35.625c0,1.146 -0.651,2.214 -1.953,3.203c-1.302,0.99 -2.89,1.485 -4.765,1.485Z" style="fill:#fff;fill-rule:nonzero;"/><path d="M3867.09,89.121c-2.187,-0 -4.088,-0.756 -5.703,-2.266c-1.614,-1.511 -2.422,-3.255 -2.422,-5.234c0,-1.98 0.808,-3.698 2.422,-5.157c1.615,-1.458 3.516,-2.187 5.703,-2.187c2.292,-0 4.193,0.729 5.703,2.187c1.511,1.459 2.266,3.177 2.266,5.157c0,1.979 -0.755,3.723 -2.266,5.234c-1.51,1.51 -3.411,2.266 -5.703,2.266Zm0,94.375c-1.875,-0 -3.411,-0.495 -4.609,-1.485c-1.198,-0.989 -1.797,-2.057 -1.797,-3.203l0,-64.844c0,-1.354 0.599,-2.448 1.797,-3.281c1.198,-0.833 2.734,-1.25 4.609,-1.25c1.771,0 3.308,0.417 4.61,1.25c1.302,0.833 1.953,1.927 1.953,3.281l-0,64.844c-0,1.146 -0.651,2.214 -1.953,3.203c-1.302,0.99 -2.839,1.485 -4.61,1.485Z" style="fill:#fff;fill-rule:nonzero;"/><path d="M3923.97,184.746c-6.77,-0 -12.76,-1.277 -17.968,-3.829c-5.209,-2.552 -9.323,-6.093 -12.344,-10.625c-3.021,-4.531 -4.531,-9.817 -4.531,-15.859l-0,-16.406c-0,-5.313 1.432,-10.209 4.296,-14.688c2.865,-4.479 6.641,-8.073 11.329,-10.781c4.687,-2.708 9.843,-4.062 15.468,-4.062c5.417,-0 10.391,1.25 14.922,3.75c4.531,2.5 8.177,5.885 10.938,10.156c2.76,4.271 4.14,9.219 4.14,14.844c0,4.166 -0.677,7.161 -2.031,8.984c-1.354,1.823 -3.073,2.943 -5.156,3.359c-2.083,0.417 -4.271,0.625 -6.563,0.625l-34.375,0l0,4.688c0,5.833 2.084,10.442 6.25,13.828c4.167,3.385 9.532,5.078 16.094,5.078c3.854,0 6.927,-0.521 9.219,-1.562c2.292,-1.042 4.167,-2.058 5.625,-3.047c1.458,-0.99 2.76,-1.485 3.906,-1.485c1.146,0 2.109,0.339 2.891,1.016c0.781,0.677 1.38,1.484 1.797,2.422c0.416,0.937 0.625,1.771 0.625,2.5c-0,1.354 -0.99,2.89 -2.969,4.609c-1.979,1.719 -4.818,3.229 -8.516,4.531c-3.698,1.302 -8.047,1.954 -13.047,1.954Zm-21.875,-43.282l28.907,0c2.812,0 4.661,-0.338 5.546,-1.015c0.886,-0.677 1.329,-2.006 1.329,-3.985c-0,-3.125 -0.756,-6.015 -2.266,-8.672c-1.51,-2.656 -3.62,-4.817 -6.328,-6.484c-2.708,-1.667 -5.781,-2.5 -9.219,-2.5c-3.229,0 -6.198,0.755 -8.906,2.266c-2.708,1.51 -4.896,3.567 -6.563,6.172c-1.666,2.604 -2.5,5.468 -2.5,8.593l0,5.625Z" style="fill:#fff;fill-rule:nonzero;"/><path d="M3971,183.496c-1.875,-0 -3.412,-0.495 -4.61,-1.485c-1.198,-0.989 -1.797,-2.057 -1.797,-3.203l0,-64.844c0,-1.354 0.599,-2.448 1.797,-3.281c1.198,-0.833 2.735,-1.25 4.61,-1.25c1.666,0 3.073,0.417 4.218,1.25c1.146,0.833 1.719,1.927 1.719,3.281l0,6.407c1.667,-3.021 4.271,-5.756 7.813,-8.204c3.541,-2.448 7.916,-3.671 13.125,-3.671c5,-0 9.583,1.38 13.75,4.14c4.166,2.761 7.5,6.38 10,10.86c2.5,4.479 3.75,9.479 3.75,15l-0,40.312c-0,1.563 -0.677,2.734 -2.032,3.516c-1.354,0.781 -2.864,1.172 -4.531,1.172c-1.562,-0 -3.021,-0.391 -4.375,-1.172c-1.354,-0.782 -2.031,-1.953 -2.031,-3.516l-0,-40.312c-0,-3.021 -0.807,-5.938 -2.422,-8.75c-1.615,-2.813 -3.776,-5.105 -6.484,-6.875c-2.709,-1.771 -5.677,-2.657 -8.907,-2.657c-2.812,0 -5.52,0.755 -8.125,2.266c-2.604,1.51 -4.739,3.594 -6.406,6.25c-1.667,2.656 -2.5,5.911 -2.5,9.766l0,40.312c0,1.146 -0.651,2.214 -1.953,3.203c-1.302,0.99 -2.839,1.485 -4.609,1.485Z" style="fill:#fff;fill-rule:nonzero;"/><path d="M4071.78,184.746c-7.188,-0 -13.099,-1.355 -17.735,-4.063c-4.635,-2.708 -8.072,-6.328 -10.312,-10.859c-2.24,-4.532 -3.359,-9.662 -3.359,-15.391l-0,-15.625c-0,-5.625 1.119,-10.729 3.359,-15.312c2.24,-4.584 5.677,-8.23 10.312,-10.938c4.636,-2.708 10.495,-4.062 17.579,-4.062c4.583,-0 8.593,0.572 12.031,1.718c3.437,1.146 6.094,2.552 7.969,4.219c1.875,1.667 2.812,3.281 2.812,4.844c0,0.833 -0.234,1.745 -0.703,2.734c-0.469,0.99 -1.094,1.849 -1.875,2.578c-0.781,0.729 -1.693,1.094 -2.734,1.094c-1.042,0 -2.162,-0.469 -3.36,-1.406c-1.198,-0.938 -2.812,-1.849 -4.844,-2.735c-2.031,-0.885 -4.869,-1.328 -8.515,-1.328c-6.354,0 -11.12,1.667 -14.297,5c-3.177,3.334 -4.766,7.865 -4.766,13.594l0,15.625c0,5.729 1.589,10.26 4.766,13.594c3.177,3.333 7.995,5 14.453,5c3.75,-0 6.667,-0.495 8.75,-1.485c2.083,-0.989 3.724,-1.927 4.922,-2.812c1.198,-0.886 2.37,-1.328 3.516,-1.328c1.145,-0 2.135,0.338 2.968,1.015c0.834,0.677 1.485,1.485 1.953,2.422c0.469,0.938 0.704,1.875 0.704,2.813c-0,1.562 -0.99,3.203 -2.969,4.922c-1.979,1.718 -4.74,3.177 -8.281,4.375c-3.542,1.198 -7.657,1.797 -12.344,1.797Z" style="fill:#fff;fill-rule:nonzero;"/><path d="M4139.44,184.746c-6.771,-0 -12.76,-1.277 -17.969,-3.829c-5.208,-2.552 -9.323,-6.093 -12.343,-10.625c-3.021,-4.531 -4.532,-9.817 -4.532,-15.859l0,-16.406c0,-5.313 1.433,-10.209 4.297,-14.688c2.865,-4.479 6.641,-8.073 11.328,-10.781c4.688,-2.708 9.844,-4.062 15.469,-4.062c5.417,-0 10.391,1.25 14.922,3.75c4.531,2.5 8.177,5.885 10.937,10.156c2.761,4.271 4.141,9.219 4.141,14.844c0,4.166 -0.677,7.161 -2.031,8.984c-1.354,1.823 -3.073,2.943 -5.156,3.359c-2.084,0.417 -4.271,0.625 -6.563,0.625l-34.375,0l0,4.688c0,5.833 2.083,10.442 6.25,13.828c4.167,3.385 9.531,5.078 16.094,5.078c3.854,0 6.927,-0.521 9.219,-1.562c2.291,-1.042 4.166,-2.058 5.625,-3.047c1.458,-0.99 2.76,-1.485 3.906,-1.485c1.146,0 2.109,0.339 2.89,1.016c0.782,0.677 1.381,1.484 1.797,2.422c0.417,0.937 0.625,1.771 0.625,2.5c0,1.354 -0.989,2.89 -2.968,4.609c-1.98,1.719 -4.818,3.229 -8.516,4.531c-3.698,1.302 -8.047,1.954 -13.047,1.954Zm-21.875,-43.282l28.906,0c2.813,0 4.662,-0.338 5.547,-1.015c0.886,-0.677 1.328,-2.006 1.328,-3.985c0,-3.125 -0.755,-6.015 -2.265,-8.672c-1.511,-2.656 -3.62,-4.817 -6.328,-6.484c-2.709,-1.667 -5.782,-2.5 -9.219,-2.5c-3.229,0 -6.198,0.755 -8.906,2.266c-2.709,1.51 -4.896,3.567 -6.563,6.172c-1.667,2.604 -2.5,5.468 -2.5,8.593l0,5.625Z" style="fill:#fff;fill-rule:nonzero;"/><path d="M1376.63,182.871c-1.771,-0 -3.438,-0.391 -5,-1.172c-1.563,-0.782 -2.604,-1.901 -3.125,-3.36l-32.031,-103.906c-0.105,-0.417 -0.157,-0.833 -0.157,-1.25c0,-1.042 0.417,-1.979 1.25,-2.812c0.834,-0.834 1.875,-1.485 3.125,-1.954c1.25,-0.468 2.448,-0.703 3.594,-0.703c1.146,0 2.162,0.235 3.047,0.703c0.885,0.469 1.484,1.224 1.797,2.266l27.5,92.813l27.344,-92.813c0.312,-1.042 0.885,-1.797 1.718,-2.266c0.834,-0.468 1.823,-0.703 2.969,-0.703c1.25,0 2.5,0.261 3.75,0.782c1.25,0.52 2.292,1.171 3.125,1.953c0.833,0.781 1.25,1.744 1.25,2.89c0,0.104 -0.026,0.261 -0.078,0.469c-0.052,0.208 -0.078,0.417 -0.078,0.625l-31.875,103.906c-0.417,1.459 -1.406,2.578 -2.969,3.36c-1.562,0.781 -3.281,1.172 -5.156,1.172Z" style="fill:#fff;fill-rule:nonzero;"/><path d="M1448.51,183.183c-5.521,0 -10.625,-1.432 -15.313,-4.297c-4.687,-2.864 -8.437,-6.588 -11.25,-11.172c-2.812,-4.583 -4.218,-9.531 -4.218,-14.843l-0,-15.938c-0,-5.312 1.38,-10.234 4.14,-14.766c2.761,-4.531 6.485,-8.203 11.172,-11.015c4.688,-2.813 9.844,-4.219 15.469,-4.219c5.521,0 10.625,1.38 15.312,4.141c4.688,2.76 8.464,6.38 11.328,10.859c2.865,4.479 4.297,9.479 4.297,15l0,15.938c0,5.208 -1.432,10.13 -4.297,14.765c-2.864,4.636 -6.64,8.386 -11.328,11.25c-4.687,2.865 -9.791,4.297 -15.312,4.297Zm-0,-11.719c3.333,0 6.328,-0.885 8.984,-2.656c2.656,-1.771 4.818,-4.089 6.485,-6.953c1.666,-2.865 2.5,-5.859 2.5,-8.984l-0,-15.938c-0,-3.021 -0.808,-5.937 -2.422,-8.75c-1.615,-2.812 -3.776,-5.104 -6.485,-6.875c-2.708,-1.771 -5.729,-2.656 -9.062,-2.656c-3.333,-0 -6.354,0.885 -9.063,2.656c-2.708,1.771 -4.843,4.063 -6.406,6.875c-1.562,2.813 -2.344,5.729 -2.344,8.75l0,15.938c0,3.125 0.782,6.119 2.344,8.984c1.563,2.864 3.698,5.182 6.406,6.953c2.709,1.771 5.73,2.656 9.063,2.656Z" style="fill:#fff;fill-rule:nonzero;"/><path d="M1523.82,183.183c-7.187,0 -13.099,-1.354 -17.734,-4.062c-4.635,-2.709 -8.073,-6.329 -10.313,-10.86c-2.239,-4.531 -3.359,-9.661 -3.359,-15.39l0,-15.625c0,-5.625 1.12,-10.73 3.359,-15.313c2.24,-4.583 5.678,-8.229 10.313,-10.937c4.635,-2.709 10.495,-4.063 17.578,-4.063c4.583,0 8.594,0.573 12.031,1.719c3.438,1.146 6.094,2.552 7.969,4.219c1.875,1.666 2.813,3.281 2.813,4.843c-0,0.834 -0.235,1.745 -0.704,2.735c-0.468,0.989 -1.093,1.849 -1.875,2.578c-0.781,0.729 -1.692,1.094 -2.734,1.094c-1.042,-0 -2.161,-0.469 -3.359,-1.407c-1.198,-0.937 -2.813,-1.849 -4.844,-2.734c-2.031,-0.886 -4.87,-1.328 -8.516,-1.328c-6.354,-0 -11.119,1.666 -14.297,5c-3.177,3.333 -4.765,7.864 -4.765,13.594l-0,15.625c-0,5.729 1.588,10.26 4.765,13.593c3.178,3.334 7.995,5 14.454,5c3.75,0 6.666,-0.495 8.75,-1.484c2.083,-0.99 3.724,-1.927 4.921,-2.813c1.198,-0.885 2.37,-1.328 3.516,-1.328c1.146,0 2.136,0.339 2.969,1.016c0.833,0.677 1.484,1.484 1.953,2.422c0.469,0.937 0.703,1.875 0.703,2.812c0,1.563 -0.989,3.203 -2.969,4.922c-1.979,1.719 -4.739,3.177 -8.281,4.375c-3.542,1.198 -7.656,1.797 -12.344,1.797Z" style="fill:#fff;fill-rule:nonzero;"/><path d="M1576.63,183.183c-5.833,0 -10.807,-1.693 -14.922,-5.078c-4.115,-3.386 -6.172,-8.62 -6.172,-15.703c0,-5.729 1.563,-10.183 4.688,-13.36c3.125,-3.177 7.421,-5.364 12.89,-6.562c5.469,-1.198 11.797,-1.797 18.985,-1.797l7.5,0l-0,-3.281c-0,-3.125 -0.573,-6.172 -1.719,-9.141c-1.146,-2.969 -2.943,-5.417 -5.391,-7.344c-2.448,-1.927 -5.807,-2.89 -10.078,-2.89c-3.646,-0 -6.536,0.364 -8.672,1.094c-2.135,0.729 -3.828,1.484 -5.078,2.265c-1.25,0.781 -2.344,1.172 -3.281,1.172c-1.563,0 -2.761,-0.755 -3.594,-2.266c-0.833,-1.51 -1.25,-2.942 -1.25,-4.296c0,-1.667 1.146,-3.178 3.438,-4.532c2.291,-1.354 5.156,-2.448 8.593,-3.281c3.438,-0.833 6.823,-1.25 10.157,-1.25c7.291,0 13.125,1.458 17.5,4.375c4.375,2.917 7.526,6.667 9.453,11.25c1.927,4.583 2.89,9.479 2.89,14.688l0,40c0,1.25 -0.599,2.343 -1.797,3.281c-1.197,0.937 -2.734,1.406 -4.609,1.406c-1.667,0 -3.073,-0.469 -4.219,-1.406c-1.145,-0.938 -1.718,-2.031 -1.718,-3.281l-0,-6.25c-2.709,3.125 -5.99,5.937 -9.844,8.437c-3.854,2.5 -8.438,3.75 -13.75,3.75Zm4.062,-10.469c3.021,0 5.964,-0.833 8.828,-2.5c2.865,-1.666 5.261,-3.75 7.188,-6.25c1.927,-2.5 2.891,-4.896 2.891,-7.187l-0,-8.125l-5.469,-0c-4.375,-0 -8.516,0.26 -12.422,0.781c-3.906,0.521 -7.057,1.641 -9.453,3.359c-2.396,1.719 -3.594,4.454 -3.594,8.204c0,4.062 1.146,7.031 3.438,8.906c2.291,1.875 5.156,2.812 8.593,2.812Z" style="fill:#fff;fill-rule:nonzero;"/><path d="M1664.13,183.183c-4.792,0 -9.141,-1.224 -13.047,-3.672c-3.906,-2.448 -6.693,-5.286 -8.359,-8.515l-0,6.25c-0,1.145 -0.573,2.213 -1.719,3.203c-1.146,0.989 -2.604,1.484 -4.375,1.484c-1.771,0 -3.255,-0.495 -4.453,-1.484c-1.198,-0.99 -1.797,-2.058 -1.797,-3.203l-0,-109.532c-0,-1.354 0.599,-2.448 1.797,-3.281c1.198,-0.833 2.682,-1.25 4.453,-1.25c1.875,0 3.463,0.417 4.765,1.25c1.303,0.833 1.954,1.927 1.954,3.281l-0,51.094c1.666,-3.021 4.244,-5.755 7.734,-8.203c3.49,-2.448 7.734,-3.672 12.734,-3.672c5.105,0 9.766,1.38 13.985,4.141c4.218,2.76 7.604,6.38 10.156,10.859c2.552,4.479 3.828,9.479 3.828,15l0,15.938c0,5.208 -1.276,10.13 -3.828,14.765c-2.552,4.636 -5.911,8.386 -10.078,11.25c-4.167,2.865 -8.75,4.297 -13.75,4.297Zm-3.125,-11.719c3.229,0 6.198,-0.885 8.906,-2.656c2.708,-1.771 4.87,-4.115 6.484,-7.031c1.615,-2.917 2.422,-5.886 2.422,-8.906l0,-15.938c0,-3.021 -0.807,-5.937 -2.422,-8.75c-1.614,-2.812 -3.776,-5.104 -6.484,-6.875c-2.708,-1.771 -5.729,-2.656 -9.062,-2.656c-2.813,-0 -5.573,0.755 -8.282,2.265c-2.708,1.511 -4.922,3.594 -6.64,6.25c-1.719,2.657 -2.578,5.912 -2.578,9.766l-0,20.156c-0,1.354 0.781,3.177 2.343,5.469c1.563,2.292 3.698,4.349 6.407,6.172c2.708,1.823 5.677,2.734 8.906,2.734Z" style="fill:#fff;fill-rule:nonzero;"/><path d="M1737.72,183.183c-5.73,0 -10.938,-1.406 -15.625,-4.219c-4.688,-2.812 -8.438,-6.51 -11.25,-11.093c-2.813,-4.584 -4.219,-9.48 -4.219,-14.688l-0,-40.625c-0,-1.146 0.651,-2.214 1.953,-3.203c1.302,-0.99 2.839,-1.484 4.609,-1.484c1.771,-0 3.282,0.494 4.532,1.484c1.25,0.989 1.875,2.057 1.875,3.203l-0,40.625c-0,3.021 0.807,5.938 2.421,8.75c1.615,2.813 3.777,5.104 6.485,6.875c2.708,1.771 5.729,2.656 9.062,2.656c3.334,0 6.355,-0.885 9.063,-2.656c2.708,-1.771 4.844,-4.062 6.406,-6.875c1.563,-2.812 2.344,-5.729 2.344,-8.75l-0,-40.781c-0,-1.25 0.677,-2.318 2.031,-3.203c1.354,-0.886 2.865,-1.328 4.531,-1.328c1.98,-0 3.542,0.442 4.688,1.328c1.146,0.885 1.719,1.953 1.719,3.203l-0,40.781c-0,5.313 -1.381,10.234 -4.141,14.766c-2.76,4.531 -6.484,8.203 -11.172,11.015c-4.687,2.813 -9.792,4.219 -15.312,4.219Z" style="fill:#fff;fill-rule:nonzero;"/><path d="M1793.97,181.933c-1.875,0 -3.412,-0.495 -4.61,-1.484c-1.198,-0.99 -1.797,-2.058 -1.797,-3.203l0,-109.532c0,-1.354 0.599,-2.448 1.797,-3.281c1.198,-0.833 2.735,-1.25 4.61,-1.25c1.77,0 3.307,0.417 4.609,1.25c1.302,0.833 1.953,1.927 1.953,3.281l0,109.532c0,1.145 -0.651,2.213 -1.953,3.203c-1.302,0.989 -2.839,1.484 -4.609,1.484Z" style="fill:#fff;fill-rule:nonzero;"/><path d="M1836.63,183.183c-5.833,0 -10.807,-1.693 -14.922,-5.078c-4.115,-3.386 -6.172,-8.62 -6.172,-15.703c0,-5.729 1.563,-10.183 4.688,-13.36c3.125,-3.177 7.421,-5.364 12.89,-6.562c5.469,-1.198 11.797,-1.797 18.985,-1.797l7.5,0l-0,-3.281c-0,-3.125 -0.573,-6.172 -1.719,-9.141c-1.146,-2.969 -2.943,-5.417 -5.391,-7.344c-2.448,-1.927 -5.807,-2.89 -10.078,-2.89c-3.646,-0 -6.536,0.364 -8.672,1.094c-2.135,0.729 -3.828,1.484 -5.078,2.265c-1.25,0.781 -2.344,1.172 -3.281,1.172c-1.563,0 -2.761,-0.755 -3.594,-2.266c-0.833,-1.51 -1.25,-2.942 -1.25,-4.296c0,-1.667 1.146,-3.178 3.438,-4.532c2.291,-1.354 5.156,-2.448 8.593,-3.281c3.438,-0.833 6.823,-1.25 10.157,-1.25c7.291,0 13.125,1.458 17.5,4.375c4.375,2.917 7.526,6.667 9.453,11.25c1.927,4.583 2.89,9.479 2.89,14.688l0,40c0,1.25 -0.599,2.343 -1.797,3.281c-1.197,0.937 -2.734,1.406 -4.609,1.406c-1.667,0 -3.073,-0.469 -4.219,-1.406c-1.145,-0.938 -1.718,-2.031 -1.718,-3.281l-0,-6.25c-2.709,3.125 -5.99,5.937 -9.844,8.437c-3.854,2.5 -8.438,3.75 -13.75,3.75Zm4.062,-10.469c3.021,0 5.964,-0.833 8.828,-2.5c2.865,-1.666 5.261,-3.75 7.188,-6.25c1.927,-2.5 2.891,-4.896 2.891,-7.187l-0,-8.125l-5.469,-0c-4.375,-0 -8.516,0.26 -12.422,0.781c-3.906,0.521 -7.057,1.641 -9.453,3.359c-2.396,1.719 -3.594,4.454 -3.594,8.204c0,4.062 1.146,7.031 3.438,8.906c2.291,1.875 5.156,2.812 8.593,2.812Z" style="fill:#fff;fill-rule:nonzero;"/><path d="M1896.47,181.933c-1.771,0 -3.256,-0.495 -4.454,-1.484c-1.197,-0.99 -1.796,-2.058 -1.796,-3.203l-0,-64.844c-0,-1.354 0.599,-2.448 1.796,-3.281c1.198,-0.834 2.683,-1.25 4.454,-1.25c1.77,-0 3.229,0.416 4.375,1.25c1.145,0.833 1.718,1.927 1.718,3.281l0,7.344c1.146,-2.188 2.709,-4.245 4.688,-6.172c1.979,-1.927 4.297,-3.516 6.953,-4.766c2.656,-1.25 5.599,-1.875 8.828,-1.875l5.313,0c1.354,0 2.526,0.573 3.515,1.719c0.99,1.146 1.485,2.552 1.485,4.219c-0,1.562 -0.495,2.916 -1.485,4.062c-0.989,1.146 -2.161,1.719 -3.515,1.719l-5.313,-0c-3.333,-0 -6.51,0.937 -9.531,2.812c-3.021,1.875 -5.495,4.505 -7.422,7.891c-1.927,3.385 -2.891,7.474 -2.891,12.266l0,35.625c0,1.145 -0.651,2.213 -1.953,3.203c-1.302,0.989 -2.89,1.484 -4.765,1.484Z" style="fill:#fff;fill-rule:nonzero;"/><path d="M1942.26,217.714c-1.667,0 -3.073,-0.39 -4.219,-1.172c-1.146,-0.781 -1.719,-2.317 -1.719,-4.609c0,-1.458 0.287,-2.76 0.86,-3.906c0.573,-1.146 1.536,-1.719 2.89,-1.719c2.292,0 4.584,-0.651 6.875,-1.953c2.292,-1.302 4.506,-3.229 6.641,-5.781c2.135,-2.552 3.984,-5.547 5.547,-8.985c1.562,-3.437 2.708,-7.239 3.437,-11.406l-25.937,-63.281c-0.313,-0.625 -0.469,-1.198 -0.469,-1.719c0,-1.146 0.469,-2.187 1.406,-3.125c0.938,-0.937 2.058,-1.693 3.36,-2.266c1.302,-0.573 2.526,-0.859 3.672,-0.859c0.833,0 1.666,0.208 2.5,0.625c0.833,0.417 1.354,1.094 1.562,2.031l20.781,54.375l18.594,-54.375c0.313,-0.937 0.859,-1.614 1.641,-2.031c0.781,-0.417 1.588,-0.625 2.422,-0.625c1.041,0 2.213,0.286 3.515,0.859c1.302,0.573 2.422,1.329 3.36,2.266c0.937,0.938 1.406,2.031 1.406,3.281c-0,0.625 -0.104,1.146 -0.313,1.563l-23.906,63.594c-1.562,4.27 -3.229,8.697 -5,13.281c-1.771,4.583 -3.88,8.828 -6.328,12.734c-2.448,3.906 -5.495,7.083 -9.141,9.531c-3.645,2.448 -8.125,3.672 -13.437,3.672Z" style="fill:#fff;fill-rule:nonzero;"/><path d="M2410.94,183.496c-1.563,-0 -3.047,-0.391 -4.453,-1.172c-1.407,-0.782 -2.11,-1.953 -2.11,-3.516l0,-105c0,-1.25 0.495,-2.292 1.485,-3.125c0.989,-0.833 2.265,-1.302 3.828,-1.406l29.531,-0c6.25,-0 11.875,1.12 16.875,3.359c5,2.24 8.958,5.807 11.875,10.703c2.917,4.896 4.375,11.459 4.375,19.688l-0,1.406c-0,8.125 -1.484,14.688 -4.453,19.688c-2.969,5 -7.005,8.619 -12.11,10.859c-5.104,2.239 -10.833,3.359 -17.187,3.359l-21.094,0l0,40.469c0,1.563 -0.677,2.734 -2.031,3.516c-1.354,0.781 -2.865,1.172 -4.531,1.172Zm6.562,-56.094l21.094,-0c6.458,-0 11.51,-1.823 15.156,-5.469c3.646,-3.646 5.469,-9.219 5.469,-16.719l-0,-1.875c-0,-7.604 -1.823,-13.203 -5.469,-16.797c-3.646,-3.593 -8.698,-5.39 -15.156,-5.39l-21.094,-0l0,46.25Z" style="fill:#fff;fill-rule:nonzero;"/><path d="M2491.1,183.496c-1.771,-0 -3.255,-0.495 -4.453,-1.485c-1.198,-0.989 -1.797,-2.057 -1.797,-3.203l-0,-64.844c-0,-1.354 0.599,-2.448 1.797,-3.281c1.198,-0.833 2.682,-1.25 4.453,-1.25c1.771,0 3.229,0.417 4.375,1.25c1.146,0.833 1.719,1.927 1.719,3.281l-0,7.344c1.146,-2.187 2.708,-4.245 4.687,-6.172c1.979,-1.927 4.297,-3.515 6.953,-4.765c2.657,-1.25 5.599,-1.875 8.828,-1.875l5.313,-0c1.354,-0 2.526,0.572 3.516,1.718c0.989,1.146 1.484,2.552 1.484,4.219c-0,1.563 -0.495,2.917 -1.484,4.063c-0.99,1.145 -2.162,1.718 -3.516,1.718l-5.313,0c-3.333,0 -6.51,0.938 -9.531,2.813c-3.021,1.875 -5.495,4.505 -7.422,7.89c-1.927,3.386 -2.89,7.474 -2.89,12.266l-0,35.625c-0,1.146 -0.651,2.214 -1.953,3.203c-1.302,0.99 -2.891,1.485 -4.766,1.485Z" style="fill:#fff;fill-rule:nonzero;"/><path d="M2563.44,184.746c-5.521,-0 -10.625,-1.433 -15.313,-4.297c-4.687,-2.865 -8.437,-6.589 -11.25,-11.172c-2.812,-4.584 -4.219,-9.531 -4.219,-14.844l0,-15.937c0,-5.313 1.381,-10.235 4.141,-14.766c2.761,-4.531 6.484,-8.203 11.172,-11.016c4.687,-2.812 9.844,-4.218 15.469,-4.218c5.521,-0 10.625,1.38 15.312,4.14c4.688,2.761 8.464,6.38 11.328,10.86c2.865,4.479 4.297,9.479 4.297,15l0,15.937c0,5.208 -1.432,10.13 -4.297,14.766c-2.864,4.635 -6.64,8.385 -11.328,11.25c-4.687,2.864 -9.791,4.297 -15.312,4.297Zm-0,-11.719c3.333,-0 6.328,-0.886 8.984,-2.656c2.656,-1.771 4.818,-4.089 6.484,-6.954c1.667,-2.864 2.5,-5.859 2.5,-8.984l0,-15.937c0,-3.021 -0.807,-5.938 -2.421,-8.75c-1.615,-2.813 -3.776,-5.105 -6.485,-6.875c-2.708,-1.771 -5.729,-2.657 -9.062,-2.657c-3.334,0 -6.354,0.886 -9.063,2.657c-2.708,1.77 -4.844,4.062 -6.406,6.875c-1.563,2.812 -2.344,5.729 -2.344,8.75l0,15.937c0,3.125 0.781,6.12 2.344,8.984c1.562,2.865 3.698,5.183 6.406,6.954c2.709,1.77 5.729,2.656 9.063,2.656Z" style="fill:#fff;fill-rule:nonzero;"/><path d="M2616.41,183.496c-1.77,-0 -3.255,-0.417 -4.453,-1.25c-1.198,-0.834 -1.797,-1.928 -1.797,-3.282l0,-83.125c0,-5.312 1.329,-10.338 3.985,-15.078c2.656,-4.739 6.536,-8.594 11.64,-11.562c5.105,-2.969 11.303,-4.453 18.594,-4.453c4.063,-0 7.969,0.442 11.719,1.328c3.75,0.885 6.849,2.109 9.297,3.672c2.448,1.562 3.672,3.281 3.672,5.156c-0,0.625 -0.183,1.536 -0.547,2.734c-0.365,1.198 -0.938,2.266 -1.719,3.203c-0.781,0.938 -1.641,1.407 -2.578,1.407c-1.042,-0 -2.266,-0.521 -3.672,-1.563c-1.406,-1.042 -3.333,-2.057 -5.781,-3.047c-2.448,-0.989 -5.807,-1.484 -10.078,-1.484c-3.854,-0 -7.162,0.573 -9.922,1.719c-2.761,1.145 -5,2.656 -6.719,4.531c-1.719,1.875 -2.969,3.932 -3.75,6.172c-0.781,2.239 -1.172,4.505 -1.172,6.797l0,14.062l18.75,0c1.25,0 2.24,0.521 2.969,1.563c0.729,1.041 1.094,2.239 1.094,3.593c-0,1.25 -0.365,2.396 -1.094,3.438c-0.729,1.041 -1.719,1.562 -2.969,1.562l-18.75,0l0,59.375c0,1.354 -0.677,2.448 -2.031,3.282c-1.354,0.833 -2.917,1.25 -4.688,1.25Zm50.313,-0c-1.771,-0 -3.281,-0.495 -4.531,-1.485c-1.25,-0.989 -1.875,-2.057 -1.875,-3.203l-0,-64.844c-0,-1.354 0.625,-2.448 1.875,-3.281c1.25,-0.833 2.76,-1.25 4.531,-1.25c1.875,0 3.437,0.417 4.687,1.25c1.25,0.833 1.875,1.927 1.875,3.281l0,64.844c0,1.146 -0.625,2.214 -1.875,3.203c-1.25,0.99 -2.812,1.485 -4.687,1.485Z" style="fill:#fff;fill-rule:nonzero;"/><path d="M2720.32,184.746c-7.188,-0 -13.099,-1.355 -17.735,-4.063c-4.635,-2.708 -8.073,-6.328 -10.312,-10.859c-2.24,-4.532 -3.36,-9.662 -3.36,-15.391l0,-15.625c0,-5.625 1.12,-10.729 3.36,-15.312c2.239,-4.584 5.677,-8.23 10.312,-10.938c4.636,-2.708 10.495,-4.062 17.578,-4.062c4.584,-0 8.594,0.572 12.032,1.718c3.437,1.146 6.093,2.552 7.968,4.219c1.875,1.667 2.813,3.281 2.813,4.844c-0,0.833 -0.234,1.745 -0.703,2.734c-0.469,0.99 -1.094,1.849 -1.875,2.578c-0.781,0.729 -1.693,1.094 -2.735,1.094c-1.041,0 -2.161,-0.469 -3.359,-1.406c-1.198,-0.938 -2.812,-1.849 -4.844,-2.735c-2.031,-0.885 -4.869,-1.328 -8.515,-1.328c-6.354,0 -11.12,1.667 -14.297,5c-3.177,3.334 -4.766,7.865 -4.766,13.594l0,15.625c0,5.729 1.589,10.26 4.766,13.594c3.177,3.333 7.995,5 14.453,5c3.75,-0 6.667,-0.495 8.75,-1.485c2.083,-0.989 3.724,-1.927 4.922,-2.812c1.198,-0.886 2.37,-1.328 3.515,-1.328c1.146,-0 2.136,0.338 2.969,1.015c0.834,0.677 1.485,1.485 1.953,2.422c0.469,0.938 0.703,1.875 0.703,2.813c0,1.562 -0.989,3.203 -2.968,4.922c-1.979,1.718 -4.74,3.177 -8.282,4.375c-3.541,1.198 -7.656,1.797 -12.343,1.797Z" style="fill:#fff;fill-rule:nonzero;"/><path d="M2763.28,89.121c-2.187,-0 -4.088,-0.756 -5.703,-2.266c-1.614,-1.511 -2.422,-3.255 -2.422,-5.234c0,-1.98 0.808,-3.698 2.422,-5.157c1.615,-1.458 3.516,-2.187 5.703,-2.187c2.292,-0 4.193,0.729 5.704,2.187c1.51,1.459 2.265,3.177 2.265,5.157c0,1.979 -0.755,3.723 -2.265,5.234c-1.511,1.51 -3.412,2.266 -5.704,2.266Zm0,94.375c-1.875,-0 -3.411,-0.495 -4.609,-1.485c-1.198,-0.989 -1.797,-2.057 -1.797,-3.203l0,-64.844c0,-1.354 0.599,-2.448 1.797,-3.281c1.198,-0.833 2.734,-1.25 4.609,-1.25c1.771,0 3.308,0.417 4.61,1.25c1.302,0.833 1.953,1.927 1.953,3.281l-0,64.844c-0,1.146 -0.651,2.214 -1.953,3.203c-1.302,0.99 -2.839,1.485 -4.61,1.485Z" style="fill:#fff;fill-rule:nonzero;"/><path d="M2820.16,184.746c-6.77,-0 -12.76,-1.277 -17.968,-3.829c-5.209,-2.552 -9.323,-6.093 -12.344,-10.625c-3.021,-4.531 -4.531,-9.817 -4.531,-15.859l-0,-16.406c-0,-5.313 1.432,-10.209 4.297,-14.688c2.864,-4.479 6.64,-8.073 11.328,-10.781c4.687,-2.708 9.843,-4.062 15.468,-4.062c5.417,-0 10.391,1.25 14.922,3.75c4.532,2.5 8.177,5.885 10.938,10.156c2.76,4.271 4.14,9.219 4.14,14.844c0,4.166 -0.677,7.161 -2.031,8.984c-1.354,1.823 -3.073,2.943 -5.156,3.359c-2.083,0.417 -4.271,0.625 -6.563,0.625l-34.375,0l0,4.688c0,5.833 2.084,10.442 6.25,13.828c4.167,3.385 9.532,5.078 16.094,5.078c3.854,0 6.927,-0.521 9.219,-1.562c2.292,-1.042 4.167,-2.058 5.625,-3.047c1.458,-0.99 2.76,-1.485 3.906,-1.485c1.146,0 2.11,0.339 2.891,1.016c0.781,0.677 1.38,1.484 1.797,2.422c0.416,0.937 0.625,1.771 0.625,2.5c-0,1.354 -0.99,2.89 -2.969,4.609c-1.979,1.719 -4.818,3.229 -8.516,4.531c-3.698,1.302 -8.047,1.954 -13.047,1.954Zm-21.875,-43.282l28.907,0c2.812,0 4.661,-0.338 5.547,-1.015c0.885,-0.677 1.328,-2.006 1.328,-3.985c-0,-3.125 -0.755,-6.015 -2.266,-8.672c-1.51,-2.656 -3.62,-4.817 -6.328,-6.484c-2.708,-1.667 -5.781,-2.5 -9.219,-2.5c-3.229,0 -6.198,0.755 -8.906,2.266c-2.708,1.51 -4.896,3.567 -6.563,6.172c-1.666,2.604 -2.5,5.468 -2.5,8.593l0,5.625Z" style="fill:#fff;fill-rule:nonzero;"/><path d="M2867.19,183.496c-1.875,-0 -3.412,-0.495 -4.61,-1.485c-1.198,-0.989 -1.797,-2.057 -1.797,-3.203l0,-64.844c0,-1.354 0.599,-2.448 1.797,-3.281c1.198,-0.833 2.735,-1.25 4.61,-1.25c1.666,0 3.073,0.417 4.218,1.25c1.146,0.833 1.719,1.927 1.719,3.281l0,6.407c1.667,-3.021 4.271,-5.756 7.813,-8.204c3.541,-2.448 7.916,-3.671 13.125,-3.671c5,-0 9.583,1.38 13.75,4.14c4.166,2.761 7.5,6.38 10,10.86c2.5,4.479 3.75,9.479 3.75,15l-0,40.312c-0,1.563 -0.677,2.734 -2.032,3.516c-1.354,0.781 -2.864,1.172 -4.531,1.172c-1.562,-0 -3.021,-0.391 -4.375,-1.172c-1.354,-0.782 -2.031,-1.953 -2.031,-3.516l-0,-40.312c-0,-3.021 -0.807,-5.938 -2.422,-8.75c-1.614,-2.813 -3.776,-5.105 -6.484,-6.875c-2.709,-1.771 -5.677,-2.657 -8.907,-2.657c-2.812,0 -5.52,0.755 -8.125,2.266c-2.604,1.51 -4.739,3.594 -6.406,6.25c-1.666,2.656 -2.5,5.911 -2.5,9.766l0,40.312c0,1.146 -0.651,2.214 -1.953,3.203c-1.302,0.99 -2.838,1.485 -4.609,1.485Z" style="fill:#fff;fill-rule:nonzero;"/><path d="M2967.97,184.746c-7.188,-0 -13.099,-1.355 -17.734,-4.063c-4.636,-2.708 -8.073,-6.328 -10.313,-10.859c-2.239,-4.532 -3.359,-9.662 -3.359,-15.391l-0,-15.625c-0,-5.625 1.12,-10.729 3.359,-15.312c2.24,-4.584 5.677,-8.23 10.313,-10.938c4.635,-2.708 10.494,-4.062 17.578,-4.062c4.583,-0 8.593,0.572 12.031,1.718c3.437,1.146 6.094,2.552 7.969,4.219c1.875,1.667 2.812,3.281 2.812,4.844c0,0.833 -0.234,1.745 -0.703,2.734c-0.469,0.99 -1.094,1.849 -1.875,2.578c-0.781,0.729 -1.693,1.094 -2.734,1.094c-1.042,0 -2.162,-0.469 -3.36,-1.406c-1.198,-0.938 -2.812,-1.849 -4.843,-2.735c-2.032,-0.885 -4.87,-1.328 -8.516,-1.328c-6.354,0 -11.12,1.667 -14.297,5c-3.177,3.334 -4.766,7.865 -4.766,13.594l0,15.625c0,5.729 1.589,10.26 4.766,13.594c3.177,3.333 7.995,5 14.453,5c3.75,-0 6.667,-0.495 8.75,-1.485c2.084,-0.989 3.724,-1.927 4.922,-2.812c1.198,-0.886 2.37,-1.328 3.516,-1.328c1.146,-0 2.135,0.338 2.968,1.015c0.834,0.677 1.485,1.485 1.954,2.422c0.468,0.938 0.703,1.875 0.703,2.813c-0,1.562 -0.99,3.203 -2.969,4.922c-1.979,1.718 -4.74,3.177 -8.281,4.375c-3.542,1.198 -7.657,1.797 -12.344,1.797Z" style="fill:#fff;fill-rule:nonzero;"/><path d="M3003.13,219.277c-1.666,-0 -3.073,-0.391 -4.219,-1.172c-1.145,-0.781 -1.718,-2.318 -1.718,-4.609c-0,-1.459 0.286,-2.761 0.859,-3.907c0.573,-1.146 1.537,-1.718 2.891,-1.718c2.291,-0 4.583,-0.652 6.875,-1.954c2.291,-1.302 4.505,-3.229 6.64,-5.781c2.136,-2.552 3.985,-5.547 5.547,-8.984c1.563,-3.438 2.709,-7.24 3.438,-11.406l-25.938,-63.282c-0.312,-0.625 -0.469,-1.198 -0.469,-1.718c0,-1.146 0.469,-2.188 1.407,-3.125c0.937,-0.938 2.057,-1.693 3.359,-2.266c1.302,-0.573 2.526,-0.859 3.672,-0.859c0.833,-0 1.667,0.208 2.5,0.625c0.833,0.416 1.354,1.093 1.562,2.031l20.782,54.375l18.593,-54.375c0.313,-0.938 0.86,-1.615 1.641,-2.031c0.781,-0.417 1.589,-0.625 2.422,-0.625c1.042,-0 2.214,0.286 3.516,0.859c1.302,0.573 2.421,1.328 3.359,2.266c0.937,0.937 1.406,2.031 1.406,3.281c0,0.625 -0.104,1.146 -0.312,1.562l-23.907,63.594c-1.562,4.271 -3.229,8.698 -5,13.281c-1.77,4.584 -3.88,8.828 -6.328,12.735c-2.448,3.906 -5.494,7.083 -9.14,9.531c-3.646,2.448 -8.125,3.672 -13.438,3.672Z" style="fill:#fff;fill-rule:nonzero;"/><path d="M311.6,184.746c-6.666,-0 -12.5,-1.016 -17.5,-3.047c-5,-2.032 -8.854,-4.427 -11.562,-7.188c-2.709,-2.76 -4.063,-5.234 -4.063,-7.422c0,-1.041 0.287,-2.109 0.86,-3.203c0.573,-1.094 1.302,-2.031 2.187,-2.812c0.886,-0.782 1.797,-1.172 2.734,-1.172c1.25,-0 2.474,0.625 3.672,1.875c1.198,1.25 2.709,2.734 4.532,4.453c1.823,1.719 4.192,3.203 7.109,4.453c2.917,1.25 6.719,1.875 11.406,1.875c4.375,0 8.177,-0.703 11.406,-2.109c3.23,-1.407 5.756,-3.542 7.579,-6.407c1.823,-2.864 2.734,-6.484 2.734,-10.859c-0,-4.479 -0.938,-8.125 -2.813,-10.937c-1.875,-2.813 -4.348,-5.157 -7.421,-7.032c-3.073,-1.875 -6.407,-3.541 -10,-5c-3.594,-1.458 -7.24,-2.942 -10.938,-4.453c-3.698,-1.51 -7.057,-3.385 -10.078,-5.625c-3.021,-2.239 -5.469,-5.13 -7.344,-8.672c-1.875,-3.541 -2.812,-8.021 -2.812,-13.437c-0,-5.729 1.041,-10.469 3.125,-14.219c2.083,-3.75 4.843,-6.719 8.281,-8.906c3.437,-2.188 7.161,-3.724 11.172,-4.61c4.01,-0.885 7.943,-1.328 11.797,-1.328c2.812,0 5.781,0.209 8.906,0.625c3.125,0.417 6.094,1.042 8.906,1.875c2.813,0.834 5.104,1.901 6.875,3.203c1.771,1.302 2.656,2.839 2.656,4.61c0,0.833 -0.208,1.797 -0.625,2.89c-0.416,1.094 -1.041,2.084 -1.875,2.969c-0.833,0.886 -1.875,1.328 -3.125,1.328c-1.145,0 -2.552,-0.495 -4.218,-1.484c-1.667,-0.99 -3.88,-1.979 -6.641,-2.969c-2.76,-0.989 -6.38,-1.484 -10.859,-1.484c-3.75,-0 -7.266,0.521 -10.547,1.562c-3.281,1.042 -5.886,2.761 -7.813,5.157c-1.927,2.395 -2.89,5.572 -2.89,9.531c-0,3.75 0.937,6.823 2.812,9.219c1.875,2.395 4.323,4.375 7.344,5.937c3.021,1.563 6.354,2.995 10,4.297c3.646,1.302 7.292,2.812 10.937,4.531c3.646,1.719 7.006,3.828 10.079,6.328c3.073,2.5 5.546,5.755 7.421,9.766c1.875,4.01 2.813,9.036 2.813,15.078c-0,7.5 -1.484,13.672 -4.453,18.516c-2.969,4.843 -7.005,8.437 -12.11,10.781c-5.104,2.344 -10.989,3.516 -17.656,3.516Z" style="fill:#fff;fill-rule:nonzero;"/><path d="M389.725,184.746c-7.187,-0 -13.099,-1.355 -17.734,-4.063c-4.636,-2.708 -8.073,-6.328 -10.313,-10.859c-2.239,-4.532 -3.359,-9.662 -3.359,-15.391l-0,-15.625c-0,-5.625 1.12,-10.729 3.359,-15.312c2.24,-4.584 5.677,-8.23 10.313,-10.938c4.635,-2.708 10.495,-4.062 17.578,-4.062c4.583,-0 8.594,0.572 12.031,1.718c3.438,1.146 6.094,2.552 7.969,4.219c1.875,1.667 2.812,3.281 2.812,4.844c0,0.833 -0.234,1.745 -0.703,2.734c-0.468,0.99 -1.093,1.849 -1.875,2.578c-0.781,0.729 -1.692,1.094 -2.734,1.094c-1.042,0 -2.161,-0.469 -3.359,-1.406c-1.198,-0.938 -2.813,-1.849 -4.844,-2.735c-2.031,-0.885 -4.87,-1.328 -8.516,-1.328c-6.354,0 -11.12,1.667 -14.297,5c-3.177,3.334 -4.765,7.865 -4.765,13.594l-0,15.625c-0,5.729 1.588,10.26 4.765,13.594c3.177,3.333 7.995,5 14.453,5c3.75,-0 6.667,-0.495 8.75,-1.485c2.084,-0.989 3.724,-1.927 4.922,-2.812c1.198,-0.886 2.37,-1.328 3.516,-1.328c1.146,-0 2.135,0.338 2.969,1.015c0.833,0.677 1.484,1.485 1.953,2.422c0.469,0.938 0.703,1.875 0.703,2.813c-0,1.562 -0.99,3.203 -2.969,4.922c-1.979,1.718 -4.739,3.177 -8.281,4.375c-3.542,1.198 -7.656,1.797 -12.344,1.797Z" style="fill:#fff;fill-rule:nonzero;"/><path d="M457.381,184.746c-6.77,-0 -12.76,-1.277 -17.968,-3.829c-5.209,-2.552 -9.323,-6.093 -12.344,-10.625c-3.021,-4.531 -4.531,-9.817 -4.531,-15.859l-0,-16.406c-0,-5.313 1.432,-10.209 4.297,-14.688c2.864,-4.479 6.64,-8.073 11.328,-10.781c4.687,-2.708 9.843,-4.062 15.468,-4.062c5.417,-0 10.391,1.25 14.922,3.75c4.532,2.5 8.177,5.885 10.938,10.156c2.76,4.271 4.14,9.219 4.14,14.844c0,4.166 -0.677,7.161 -2.031,8.984c-1.354,1.823 -3.073,2.943 -5.156,3.359c-2.083,0.417 -4.271,0.625 -6.563,0.625l-34.375,0l0,4.688c0,5.833 2.084,10.442 6.25,13.828c4.167,3.385 9.532,5.078 16.094,5.078c3.854,0 6.927,-0.521 9.219,-1.562c2.292,-1.042 4.167,-2.058 5.625,-3.047c1.458,-0.99 2.76,-1.485 3.906,-1.485c1.146,0 2.11,0.339 2.891,1.016c0.781,0.677 1.38,1.484 1.797,2.422c0.416,0.937 0.625,1.771 0.625,2.5c-0,1.354 -0.99,2.89 -2.969,4.609c-1.979,1.719 -4.818,3.229 -8.516,4.531c-3.698,1.302 -8.047,1.954 -13.047,1.954Zm-21.875,-43.282l28.907,0c2.812,0 4.661,-0.338 5.547,-1.015c0.885,-0.677 1.328,-2.006 1.328,-3.985c-0,-3.125 -0.755,-6.015 -2.266,-8.672c-1.51,-2.656 -3.62,-4.817 -6.328,-6.484c-2.708,-1.667 -5.781,-2.5 -9.219,-2.5c-3.229,0 -6.198,0.755 -8.906,2.266c-2.708,1.51 -4.896,3.567 -6.563,6.172c-1.666,2.604 -2.5,5.468 -2.5,8.593l0,5.625Z" style="fill:#fff;fill-rule:nonzero;"/><path d="M504.413,183.496c-1.875,-0 -3.412,-0.495 -4.61,-1.485c-1.198,-0.989 -1.797,-2.057 -1.797,-3.203l0,-64.844c0,-1.354 0.599,-2.448 1.797,-3.281c1.198,-0.833 2.735,-1.25 4.61,-1.25c1.666,0 3.073,0.417 4.218,1.25c1.146,0.833 1.719,1.927 1.719,3.281l0,6.407c1.667,-3.021 4.271,-5.756 7.813,-8.204c3.541,-2.448 7.916,-3.671 13.125,-3.671c5,-0 9.583,1.38 13.75,4.14c4.166,2.761 7.5,6.38 10,10.86c2.5,4.479 3.75,9.479 3.75,15l-0,40.312c-0,1.563 -0.677,2.734 -2.032,3.516c-1.354,0.781 -2.864,1.172 -4.531,1.172c-1.562,-0 -3.021,-0.391 -4.375,-1.172c-1.354,-0.782 -2.031,-1.953 -2.031,-3.516l-0,-40.312c-0,-3.021 -0.807,-5.938 -2.422,-8.75c-1.614,-2.813 -3.776,-5.105 -6.484,-6.875c-2.709,-1.771 -5.677,-2.657 -8.907,-2.657c-2.812,0 -5.52,0.755 -8.125,2.266c-2.604,1.51 -4.739,3.594 -6.406,6.25c-1.666,2.656 -2.5,5.911 -2.5,9.766l0,40.312c0,1.146 -0.651,2.214 -1.953,3.203c-1.302,0.99 -2.838,1.485 -4.609,1.485Z" style="fill:#fff;fill-rule:nonzero;"/><path d="M592.694,184.746c-5.833,-0 -10.807,-1.693 -14.922,-5.079c-4.114,-3.385 -6.172,-8.619 -6.172,-15.703c0,-5.729 1.563,-10.182 4.688,-13.359c3.125,-3.177 7.422,-5.365 12.89,-6.563c5.469,-1.198 11.797,-1.796 18.985,-1.796l7.5,-0l-0,-3.282c-0,-3.125 -0.573,-6.172 -1.719,-9.14c-1.146,-2.969 -2.943,-5.417 -5.391,-7.344c-2.448,-1.927 -5.807,-2.891 -10.078,-2.891c-3.646,0 -6.536,0.365 -8.672,1.094c-2.135,0.729 -3.828,1.484 -5.078,2.266c-1.25,0.781 -2.344,1.172 -3.281,1.172c-1.563,-0 -2.76,-0.756 -3.594,-2.266c-0.833,-1.511 -1.25,-2.943 -1.25,-4.297c0,-1.667 1.146,-3.177 3.438,-4.531c2.291,-1.354 5.156,-2.448 8.593,-3.281c3.438,-0.834 6.823,-1.25 10.157,-1.25c7.291,-0 13.125,1.458 17.5,4.375c4.375,2.916 7.526,6.666 9.453,11.25c1.927,4.583 2.89,9.479 2.89,14.687l0,40c0,1.25 -0.598,2.344 -1.796,3.281c-1.198,0.938 -2.735,1.407 -4.61,1.407c-1.666,-0 -3.073,-0.469 -4.219,-1.407c-1.145,-0.937 -1.718,-2.031 -1.718,-3.281l-0,-6.25c-2.709,3.125 -5.99,5.938 -9.844,8.438c-3.854,2.5 -8.438,3.75 -13.75,3.75Zm4.062,-10.469c3.021,-0 5.964,-0.834 8.829,-2.5c2.864,-1.667 5.26,-3.75 7.187,-6.25c1.927,-2.5 2.891,-4.896 2.891,-7.188l-0,-8.125l-5.469,0c-4.375,0 -8.516,0.261 -12.422,0.782c-3.906,0.52 -7.057,1.64 -9.453,3.359c-2.396,1.719 -3.594,4.453 -3.594,8.203c0,4.063 1.146,7.031 3.438,8.906c2.291,1.875 5.156,2.813 8.593,2.813Z" style="fill:#fff;fill-rule:nonzero;"/><path d="M652.538,183.496c-1.771,-0 -3.255,-0.495 -4.453,-1.485c-1.198,-0.989 -1.797,-2.057 -1.797,-3.203l-0,-64.844c-0,-1.354 0.599,-2.448 1.797,-3.281c1.198,-0.833 2.682,-1.25 4.453,-1.25c1.771,0 3.229,0.417 4.375,1.25c1.146,0.833 1.718,1.927 1.718,3.281l0,7.344c1.146,-2.187 2.709,-4.245 4.688,-6.172c1.979,-1.927 4.297,-3.515 6.953,-4.765c2.656,-1.25 5.599,-1.875 8.828,-1.875l5.313,-0c1.354,-0 2.526,0.572 3.515,1.718c0.99,1.146 1.485,2.552 1.485,4.219c-0,1.563 -0.495,2.917 -1.485,4.063c-0.989,1.145 -2.161,1.718 -3.515,1.718l-5.313,0c-3.333,0 -6.51,0.938 -9.531,2.813c-3.021,1.875 -5.495,4.505 -7.422,7.89c-1.927,3.386 -2.891,7.474 -2.891,12.266l0,35.625c0,1.146 -0.651,2.214 -1.953,3.203c-1.302,0.99 -2.89,1.485 -4.765,1.485Z" style="fill:#fff;fill-rule:nonzero;"/><path d="M706.131,89.121c-2.187,-0 -4.088,-0.756 -5.703,-2.266c-1.614,-1.511 -2.422,-3.255 -2.422,-5.234c0,-1.98 0.808,-3.698 2.422,-5.157c1.615,-1.458 3.516,-2.187 5.703,-2.187c2.292,-0 4.193,0.729 5.704,2.187c1.51,1.459 2.265,3.177 2.265,5.157c0,1.979 -0.755,3.723 -2.265,5.234c-1.511,1.51 -3.412,2.266 -5.704,2.266Zm0,94.375c-1.875,-0 -3.411,-0.495 -4.609,-1.485c-1.198,-0.989 -1.797,-2.057 -1.797,-3.203l0,-64.844c0,-1.354 0.599,-2.448 1.797,-3.281c1.198,-0.833 2.734,-1.25 4.609,-1.25c1.771,0 3.308,0.417 4.61,1.25c1.302,0.833 1.953,1.927 1.953,3.281l-0,64.844c-0,1.146 -0.651,2.214 -1.953,3.203c-1.302,0.99 -2.839,1.485 -4.61,1.485Z" style="fill:#fff;fill-rule:nonzero;"/><path d="M758.944,184.746c-5.521,-0 -10.625,-1.433 -15.313,-4.297c-4.687,-2.865 -8.437,-6.589 -11.25,-11.172c-2.812,-4.584 -4.218,-9.531 -4.218,-14.844l-0,-15.937c-0,-5.313 1.38,-10.235 4.14,-14.766c2.761,-4.531 6.485,-8.203 11.172,-11.016c4.688,-2.812 9.844,-4.218 15.469,-4.218c5.521,-0 10.625,1.38 15.312,4.14c4.688,2.761 8.464,6.38 11.329,10.86c2.864,4.479 4.296,9.479 4.296,15l0,15.937c0,5.208 -1.432,10.13 -4.296,14.766c-2.865,4.635 -6.641,8.385 -11.329,11.25c-4.687,2.864 -9.791,4.297 -15.312,4.297Zm-0,-11.719c3.333,-0 6.328,-0.886 8.984,-2.656c2.657,-1.771 4.818,-4.089 6.485,-6.954c1.666,-2.864 2.5,-5.859 2.5,-8.984l-0,-15.937c-0,-3.021 -0.808,-5.938 -2.422,-8.75c-1.615,-2.813 -3.776,-5.105 -6.485,-6.875c-2.708,-1.771 -5.729,-2.657 -9.062,-2.657c-3.333,0 -6.354,0.886 -9.063,2.657c-2.708,1.77 -4.843,4.062 -6.406,6.875c-1.562,2.812 -2.344,5.729 -2.344,8.75l0,15.937c0,3.125 0.782,6.12 2.344,8.984c1.563,2.865 3.698,5.183 6.406,6.954c2.709,1.77 5.73,2.656 9.063,2.656Z" style="fill:#fff;fill-rule:nonzero;"/><path d="M826.756,184.746c-5,-0 -9.427,-0.652 -13.281,-1.954c-3.854,-1.302 -6.875,-2.838 -9.062,-4.609c-2.188,-1.771 -3.282,-3.542 -3.282,-5.312c0,-0.834 0.209,-1.693 0.625,-2.579c0.417,-0.885 0.964,-1.666 1.641,-2.343c0.677,-0.677 1.432,-1.016 2.266,-1.016c1.25,0 2.604,0.599 4.062,1.797c1.459,1.198 3.438,2.422 5.938,3.672c2.5,1.25 6.093,1.875 10.781,1.875c5.521,-0 9.375,-1.016 11.562,-3.047c2.188,-2.031 3.282,-4.297 3.282,-6.797c-0,-3.229 -0.938,-5.703 -2.813,-7.422c-1.875,-1.719 -4.271,-3.073 -7.187,-4.062c-2.917,-0.99 -5.99,-1.953 -9.219,-2.891c-3.229,-0.937 -6.302,-2.109 -9.219,-3.516c-2.916,-1.406 -5.286,-3.385 -7.109,-5.937c-1.823,-2.552 -2.735,-5.964 -2.735,-10.234c0,-3.438 0.834,-6.823 2.5,-10.157c1.667,-3.333 4.375,-6.12 8.125,-8.359c3.75,-2.24 8.75,-3.359 15,-3.359c3.646,-0 7.162,0.39 10.547,1.171c3.386,0.782 6.146,1.823 8.282,3.125c2.135,1.302 3.203,2.683 3.203,4.141c-0,0.625 -0.209,1.458 -0.625,2.5c-0.417,1.042 -0.99,1.979 -1.719,2.813c-0.729,0.833 -1.667,1.25 -2.813,1.25c-0.833,-0 -2.005,-0.391 -3.515,-1.172c-1.511,-0.782 -3.333,-1.537 -5.469,-2.266c-2.135,-0.729 -4.713,-1.094 -7.734,-1.094c-3.438,0 -6.198,0.599 -8.282,1.797c-2.083,1.198 -3.593,2.604 -4.531,4.219c-0.937,1.614 -1.406,3.255 -1.406,4.922c-0,2.604 0.911,4.635 2.734,6.094c1.823,1.458 4.219,2.63 7.188,3.515c2.969,0.886 6.068,1.771 9.297,2.656c3.229,0.886 6.302,2.136 9.218,3.75c2.917,1.615 5.313,3.829 7.188,6.641c1.875,2.813 2.812,6.563 2.812,11.25c0,6.354 -2.291,11.432 -6.875,15.234c-4.583,3.802 -11.041,5.704 -19.375,5.704Z" style="fill:#fff;fill-rule:nonzero;"/><g><path d="M331.973,532.85c0,-0 -0.311,-0.211 -0.485,-0.275l-37.904,-15.564c-0.86,-0.348 -1.785,-0.376 -2.609,-0.073l0,-0.239l-11.618,5.191l-11.719,29.042c-0.65,1.584 -1.859,2.509 -3.268,2.509c-0.65,-0 -2.271,-0.238 -3.232,-2.335l-8.075,-17.459l-3.919,1.749c-0.275,-0.211 -0.622,-0.412 -0.998,-0.55l-38.215,-15.6c-0.513,-0.211 -1.062,-0.275 -1.611,-0.238l-0,-0.76l-42.198,16.351l0,91.553l39.523,-17.56c0.376,0.485 0.861,0.897 1.447,1.135l38.215,15.674c0.449,0.174 0.925,0.275 1.41,0.275c0.723,-0 1.447,-0.211 2.06,-0.623c0.101,-0.073 0.211,-0.174 0.311,-0.274l0,0.348l41.549,-18.558c-0,-0 0.073,0.036 0.1,0.073l38.216,15.463c0.448,0.174 0.924,0.275 1.41,0.275c0.274,0 0.586,-0.073 0.86,-0.137l0,0.238l41.823,-18.595l-0,-89.284l-41.136,18.284l0.063,-0.036Zm-88.972,83.544l-30.762,-12.616l-0,-75.606l30.762,12.579l-0,75.643Zm52.89,-15.775l-0,-74.607l30.488,12.506l0.311,74.544l-30.762,-12.442l-0.037,-0.001Z" style="fill-rule:nonzero;"/><path d="M240.767,496.732c0.788,0.787 1.447,1.648 1.859,2.545l21.616,46.775l19.18,-47.525c20.93,-7.8 35.844,-27.971 35.844,-51.617c0.027,-30.46 -24.647,-55.133 -55.06,-55.133c-30.415,0 -55.088,24.673 -55.088,55.088c-0,22.065 12.954,41.07 31.65,49.869l-0.001,-0.002Zm23.438,-74.856c13.816,0 24.985,11.206 24.985,24.985c-0,13.778 -11.206,24.985 -24.985,24.985c-13.778,-0 -24.985,-11.207 -24.985,-24.985c0,-13.779 11.207,-24.985 24.985,-24.985Z" style="fill-rule:nonzero;"/></g><path d="M1254.48,391.777l-0,234.375l234.375,0l-0,-234.375l-234.375,0Zm175.386,112.736l-0,-43.846l43.763,-0l-0,43.763l-43.763,0l-0,0.083Zm43.846,9.818l0,43.763l-43.763,0l-0,-43.763l43.763,-0Zm-97.511,-9.818l0,-43.846l43.764,-0l-0,43.763l-43.764,0l0,0.083Zm43.847,63.482l-0,43.763l-43.763,0l-0,-43.763l43.763,0Zm-43.847,-117.146l0,-43.846l43.764,-0l-0,43.763l-43.764,0l0,0.083Zm-53.664,107.328l0,-43.763l43.764,0l-0,43.763l-43.764,0Zm43.847,9.818l-0,43.763l-43.847,0l0,-43.763l43.847,0Zm-43.847,-63.482l0,-43.846l43.764,-0l-0,43.763l-43.764,0l0,0.083Zm0,-53.664l0,-43.846l43.764,-0l-0,43.763l-43.764,0l0,0.083Zm-53.664,107.328l0,-43.763l43.763,0l0,43.763l-43.763,0Zm43.847,9.818l-0,43.763l-43.847,0l0,-43.763l43.847,0Zm-43.847,-117.146l0,-43.846l43.763,-0l0,43.763l-43.763,0l0,0.083Z" style="fill-rule:nonzero;"/><path d="M3687.32,399.549c-0.111,-3.85 -3.24,-7.09 -7.228,-6.563c-1.246,0.166 -2.353,0.72 -3.461,1.218c-3.24,1.412 -6.453,2.825 -9.693,4.237c-11.381,4.985 -22.763,9.997 -34.144,14.982c-8.447,3.711 -16.921,7.421 -25.367,11.132c-3.489,-1.551 -7.006,-3.074 -10.495,-4.625c-9.056,-3.96 -18.111,-7.947 -27.167,-11.907c-8.751,-3.85 -17.502,-7.671 -26.252,-11.52c-2.603,-1.136 -5.207,-2.299 -7.81,-3.434c-0.581,-0.25 -1.135,-0.499 -1.717,-0.748c-1.606,-0.692 -2.907,-0.748 -4.541,-0.028c-4.957,2.16 -9.914,4.348 -14.871,6.536c-9.333,4.098 -18.665,8.169 -27.97,12.268c-8.224,3.6 -16.449,7.2 -24.646,10.827c-2.022,0.887 -4.071,1.773 -6.092,2.687c-2.548,1.107 -3.988,3.489 -4.043,6.258c-0.056,3.074 -0,6.176 -0,9.249l-0,175.959c-0,0.803 -0.028,1.606 -0,2.409c0.138,3.822 3.295,6.979 7.227,6.453c1.08,-0.139 2.022,-0.582 2.991,-0.997c5.899,-2.603 11.825,-5.179 17.723,-7.782c9.471,-4.154 18.942,-8.308 28.441,-12.462c7.421,-3.267 14.815,-6.507 22.237,-9.747c0.415,-0.194 0.858,-0.388 1.301,-0.554c7.754,3.406 15.536,6.812 23.29,10.218c13.597,5.954 27.194,11.936 40.791,17.89c3.129,1.384 6.231,2.769 9.36,4.098c1.551,0.665 2.797,0.776 4.403,0.056c0.249,-0.111 0.526,-0.222 0.776,-0.333c1.44,-0.637 2.88,-1.246 4.32,-1.883c12.794,-5.621 25.588,-11.215 38.381,-16.837c10.081,-4.431 20.299,-8.585 30.241,-13.265c0.055,-0.027 0.083,-0.055 0.138,-0.055c0.166,-0.083 0.333,-0.138 0.499,-0.221c0.249,-0.139 0.498,-0.277 0.72,-0.444c2.437,-1.744 2.714,-4.43 2.714,-7.227l-0,-173.134c-0.056,-4.237 0.055,-8.502 -0.056,-12.711Zm-194.872,110.992l-0,-8.308c-0,-3.822 3.101,-6.923 6.923,-6.923c3.821,-0 6.923,3.101 6.923,6.923l-0,8.308c-0,3.821 -3.102,6.923 -6.923,6.923c-3.822,-0 -6.923,-3.102 -6.923,-6.923Zm21.572,35.612c-1.357,1.302 -3.074,1.939 -4.818,1.939c-1.8,-0 -3.628,-0.72 -4.985,-2.105c-2.299,-2.381 -4.32,-5.04 -6.009,-7.892c-1.939,-3.296 -0.831,-7.533 2.464,-9.471c3.296,-1.939 7.533,-0.831 9.471,2.465c1.135,1.91 2.492,3.683 4.016,5.289c2.686,2.741 2.603,7.117 -0.139,9.775Zm2.963,-78.397l0,0.526c-0.221,7.975 -5.898,15.369 -13.902,16.948c-7.338,1.467 -14.898,-1.662 -18.83,-8.114c-3.933,-6.453 -3.074,-14.76 1.689,-20.521c4.541,-5.483 12.572,-7.698 19.274,-5.206c6.951,2.576 11.575,8.973 11.769,16.367Zm23.483,90.637c-1.966,0.277 -3.987,0.416 -6.009,0.416c-1.301,-0 -2.603,-0.056 -3.904,-0.166c-3.794,-0.36 -6.619,-3.711 -6.259,-7.533c0.36,-3.821 3.711,-6.618 7.532,-6.258c0.859,0.083 1.745,0.11 2.631,0.11c1.357,0 2.714,-0.083 4.043,-0.276c3.794,-0.554 7.283,2.077 7.837,5.87c0.554,3.794 -2.077,7.284 -5.871,7.837Zm31.265,-22.154c-1.523,2.936 -3.406,5.677 -5.594,8.197c-1.356,1.579 -3.295,2.354 -5.206,2.354c-1.606,0 -3.24,-0.554 -4.541,-1.717c-2.88,-2.52 -3.185,-6.895 -0.665,-9.775c1.468,-1.689 2.742,-3.517 3.766,-5.483c1.773,-3.379 5.954,-4.708 9.333,-2.936c3.35,1.8 4.68,5.982 2.907,9.36Zm4.764,-27.471c-0,3.822 -3.102,6.923 -6.924,6.923c-3.821,0 -6.923,-3.101 -6.923,-6.923l0,-8.307c0,-3.822 3.102,-6.924 6.923,-6.924c3.822,0 6.924,3.102 6.924,6.924l-0,8.307Zm10.717,-31.957c-1.745,1.385 -3.324,2.963 -4.708,4.708c-1.357,1.744 -3.406,2.631 -5.456,2.631c-1.495,-0 -3.018,-0.499 -4.292,-1.496c-2.991,-2.354 -3.517,-6.729 -1.163,-9.72c2.049,-2.603 4.403,-4.957 7.006,-7.006c2.991,-2.354 7.366,-1.856 9.72,1.135c2.409,3.019 1.911,7.366 -1.107,9.748Zm59.483,34.92l0,8.308c0,3.822 -3.101,6.923 -6.923,6.923c-3.822,0 -6.923,-3.101 -6.923,-6.923l-0,-8.308c-0,-3.821 3.101,-6.923 6.923,-6.923c3.822,0 6.923,3.102 6.923,6.923Zm-16.532,-37.855c3.184,-2.105 7.477,-1.219 9.581,1.966c1.828,2.769 3.323,5.76 4.431,8.889c1.302,3.6 -0.581,7.56 -4.181,8.862c-0.776,0.277 -1.579,0.415 -2.354,0.415c-2.825,0 -5.483,-1.772 -6.508,-4.597c-0.748,-2.077 -1.745,-4.098 -2.991,-5.954c-2.049,-3.184 -1.163,-7.477 2.022,-9.581Zm-15.84,-1.773c-0.637,0 -1.274,-0.083 -1.911,-0.277c-2.133,-0.609 -4.348,-0.969 -6.563,-1.052c-3.822,-0.166 -6.785,-3.378 -6.619,-7.2c0.166,-3.822 3.379,-6.785 7.2,-6.619c3.323,0.139 6.619,0.665 9.803,1.579c3.683,1.052 5.816,4.874 4.763,8.557c-0.886,3.046 -3.655,5.012 -6.673,5.012Zm44.28,90.223c2.742,2.741 2.548,7.034 -0,9.803c-2.52,2.769 -7.228,2.575 -9.803,-0c-1.136,-1.135 -7.173,-7.172 -9.028,-9.028c-3.018,3.019 -6.037,6.037 -9.028,9.028c-2.741,2.741 -7.034,2.548 -9.803,-0c-2.769,-2.52 -2.575,-7.228 0,-9.803c1.135,-1.136 7.172,-7.173 9.028,-9.028c-3.019,-3.019 -6.037,-6.037 -9.028,-9.028c-2.741,-2.741 -2.548,-7.034 0,-9.803c2.52,-2.742 7.228,-2.575 9.803,0c1.136,1.135 7.173,7.172 9.028,9.028l9.028,-9.028c2.741,-2.742 7.034,-2.548 9.803,0c2.769,2.52 2.575,7.228 -0,9.803c-1.135,1.136 -2.298,2.299 -3.434,3.434l-5.621,5.566c3.018,3.019 6.037,6.037 9.055,9.056Z" style="fill-rule:nonzero;"/><g><path d="M4655,391.777c-64.62,0 -117.187,52.567 -117.187,117.188c-0,64.62 52.567,117.187 117.187,117.187c64.621,0 117.188,-52.567 117.188,-117.187c-0,-64.621 -52.567,-117.188 -117.188,-117.188Zm64.956,176.199l-8.747,-8.705c-1.633,-1.632 -4.269,-1.632 -5.901,-0c-1.633,1.632 -1.633,4.269 -0,5.901l8.705,8.747c-14.649,13.309 -33.774,21.722 -54.828,22.726l0,-12.346c0,-2.302 -1.883,-4.186 -4.185,-4.186c-2.302,0 -4.185,1.884 -4.185,4.186l-0,12.346c-21.052,-1.004 -40.179,-9.417 -54.828,-22.726l8.705,-8.747c1.633,-1.632 1.633,-4.269 0,-5.901c-1.632,-1.632 -4.269,-1.632 -5.901,-0l-8.747,8.705c-13.309,-14.648 -21.722,-33.774 -22.726,-54.827l12.347,-0c2.302,-0 4.185,-1.884 4.185,-4.186c-0,-2.302 -1.883,-4.185 -4.185,-4.185l-12.347,-0c1.004,-21.052 9.417,-40.179 22.726,-54.828l8.747,8.706c0.795,0.795 1.884,1.213 2.93,1.213c1.046,0 2.135,-0.418 2.972,-1.213c1.632,-1.633 1.632,-4.269 -0,-5.902l-8.706,-8.747c14.649,-13.309 33.774,-21.721 54.828,-22.726l-0,12.347c-0,2.302 1.883,4.185 4.185,4.185c2.302,0 4.185,-1.883 4.185,-4.185l0,-12.347c21.052,1.005 40.179,9.417 54.828,22.726l-8.705,8.747c-1.632,1.633 -1.632,4.27 -0,5.902c0.837,0.795 1.883,1.213 2.971,1.213c1.089,0 2.135,-0.418 2.93,-1.213l8.747,-8.706c13.31,14.649 21.722,33.774 22.726,54.828l-12.346,-0c-2.302,-0 -4.185,1.883 -4.185,4.185c-0,2.302 1.883,4.186 4.185,4.186l12.346,-0c-1.004,21.051 -9.416,40.178 -22.726,54.827l-0,0Z" style="fill-rule:nonzero;"/><path d="M4671.11,513.234c0.376,-1.381 0.628,-2.804 0.628,-4.269c-0,-6.152 -3.39,-11.509 -8.371,-14.397l0,-35.826c0,-2.302 -0.921,-4.395 -2.469,-5.901c-1.507,-1.549 -3.6,-2.47 -5.901,-2.47c-4.604,0 -8.371,3.767 -8.371,8.371l0,35.826c-4.981,2.888 -8.371,8.245 -8.371,14.397c0,9.25 7.492,16.741 16.742,16.741c1.506,0 2.887,-0.251 4.269,-0.628l14.941,14.9c1.632,1.632 3.767,2.469 5.901,2.469c2.135,0 4.269,-0.837 5.901,-2.469c3.307,-3.265 3.307,-8.538 0,-11.802l-14.899,-14.942Zm-16.113,4.102c-4.604,-0 -8.371,-3.767 -8.371,-8.371c0,-4.604 3.767,-8.37 8.371,-8.37c4.603,-0 8.37,3.766 8.37,8.37c0,4.604 -3.767,8.371 -8.37,8.371Z" style="fill-rule:nonzero;"/></g><path d="M4398.02,754.402l0,-587.5" style="fill:none;stroke:#000;stroke-width:26.04px;"/><path d="M3303.85,754.402l-0,-587.5" style="fill:none;stroke:#000;stroke-width:26.04px;"/><path d="M2209.69,754.402l0,-587.5" style="fill:none;stroke:#000;stroke-width:26.04px;"/><path d="M1115.52,754.402l-0,-587.5" style="fill:none;stroke:#000;stroke-width:26.04px;"/><path d="M1116.4,249.74l0,-236.719" style="fill:none;stroke:#595959;stroke-width:26.04px;stroke-linecap:butt;"/></g></svg>