<?xml version="1.0" encoding="UTF-8" standalone="no"?><!DOCTYPE svg PUBLIC "-//W3C//DTD SVG 1.1//EN" "http://www.w3.org/Graphics/SVG/1.1/DTD/svg11.dtd"><svg width="100%" height="100%" viewBox="0 0 400 204" version="1.1" xmlns="http://www.w3.org/2000/svg" xmlns:xlink="http://www.w3.org/1999/xlink" xml:space="preserve" xmlns:serif="http://www.serif.com/" style="fill-rule:evenodd;clip-rule:evenodd;stroke-linejoin:round;stroke-miterlimit:2;"><g><path d="M225.614,203.125l-51.444,-0c-2.541,-0 -4.602,-2.06 -4.602,-4.602l0,-193.921c0,-2.542 2.061,-4.602 4.602,-4.602l51.444,0c2.542,0 4.602,2.06 4.602,4.602l0,193.921c0,2.542 -2.06,4.602 -4.602,4.602Zm-80.182,-4.602l0,-193.921c0,-2.542 -2.06,-4.602 -4.602,-4.602l-51.444,0c-2.542,0 -4.602,2.06 -4.602,4.602l0,193.921c0,2.542 2.06,4.602 4.602,4.602l51.444,-0c2.542,-0 4.602,-2.06 4.602,-4.602Zm-84.784,-0l0,-193.921c0,-2.542 -2.06,-4.602 -4.602,-4.602l-51.444,0c-2.541,0 -4.602,2.06 -4.602,4.602l-0,193.921c-0,2.542 2.061,4.602 4.602,4.602l51.444,-0c2.542,-0 4.602,-2.06 4.602,-4.602Zm339.066,0.352l-60.578,-60.576l0,18.676l46.15,46.15l9.897,-0c2.416,-0 4.342,-1.882 4.531,-4.25Zm-60.506,-194.627l60.577,60.578l-0,-18.677l-46.15,-46.149l-9.897,0c-2.416,0 -4.34,1.881 -4.53,4.248Zm-0.072,190.926l7.951,7.951l18.676,-0l-26.627,-26.627l0,18.676Zm0,-76.398l60.649,60.648l-0,-18.678l-60.649,-60.647l0,18.677Zm60.649,-110.825l-7.952,-7.951l-18.675,0l26.627,26.627l-0,-18.676Zm-60.649,34.426l60.649,60.649l-0,-18.678l-60.649,-60.649l0,18.678Zm0,38.199l60.649,60.648l-0,-18.675l-60.649,-60.649l0,18.676Zm-24.136,-72.625l-7.951,-7.951l-18.674,-0l26.625,26.626l0,-18.675Zm-60.648,187.223l7.951,7.951l18.678,-0l-26.629,-26.629l0,18.678Zm0,-133.272l0,18.673l60.648,60.648l0,-18.673l-60.648,-60.648Zm0,-38.2l0,18.677l60.648,60.649l0,-18.678l-60.648,-60.648Zm60.648,155.722l0,-18.678l-60.648,-60.648l0,18.677l60.648,60.649Zm-0.071,19.451l-60.577,-60.577l0,18.675l46.152,46.152l9.894,-0c2.417,-0 4.342,-1.882 4.531,-4.25Zm-60.506,-194.625l60.577,60.577l0,-18.679l-46.147,-46.148l-9.899,0c-2.417,0 -4.342,1.882 -4.531,4.25Z" style="fill-rule:nonzero;"/></g></svg>