<?xml version="1.0" encoding="UTF-8" standalone="no"?><!DOCTYPE svg PUBLIC "-//W3C//DTD SVG 1.1//EN" "http://www.w3.org/Graphics/SVG/1.1/DTD/svg11.dtd"><svg width="100%" height="100%" viewBox="0 0 394 200" version="1.1" xmlns="http://www.w3.org/2000/svg" xmlns:xlink="http://www.w3.org/1999/xlink" xml:space="preserve" xmlns:serif="http://www.serif.com/" style="fill-rule:evenodd;clip-rule:evenodd;stroke-linejoin:round;stroke-miterlimit:2;"><g><path d="M138.664,200l-50.653,-0c-2.503,-0 -4.531,-2.029 -4.531,-4.531l-0,-190.938c-0,-2.502 2.028,-4.531 4.531,-4.531l50.653,0c2.502,0 4.531,2.029 4.531,4.531l0,190.938c0,2.502 -2.029,4.531 -4.531,4.531Zm-78.949,-4.531l0,-190.938c0,-2.502 -2.029,-4.531 -4.531,-4.531l-50.653,0c-2.502,0 -4.531,2.029 -4.531,4.531l0,190.938c0,2.502 2.029,4.531 4.531,4.531l50.653,-0c2.502,-0 4.531,-2.029 4.531,-4.531Zm274.274,-191.286l59.645,59.646l0,-18.39l-45.439,-45.439l-9.745,0c-2.379,0 -4.274,1.852 -4.461,4.183Zm-0.07,75.154l59.715,59.714l0,-18.387l-59.715,-59.716l-0,18.389Zm59.715,-71.508l-7.829,-7.829l-18.388,0l26.217,26.217l0,-18.388Zm-59.715,33.896l59.715,59.716l0,-18.39l-59.715,-59.716l-0,18.39Zm-0,150.446l7.828,7.829l18.389,0l-26.217,-26.217l-0,18.388Zm59.645,3.644l-59.645,-59.644l-0,18.389l45.439,45.44l9.745,-0c2.379,-0 4.275,-1.853 4.461,-4.185Zm-59.645,-78.866l59.715,59.714l0,-18.39l-59.715,-59.714l-0,18.39Zm-166.959,75.225l7.826,7.826l18.39,0l-26.216,-26.217l-0,18.391Zm59.645,3.642l-59.645,-59.644l-0,18.389l45.438,45.439l9.745,0c2.38,-0 4.275,-1.852 4.462,-4.184Zm0.07,-19.152l-0,-18.39l-59.715,-59.714l-0,18.39l59.715,59.714Zm-59.645,-172.481l59.645,59.646l-0,-18.39l-45.438,-45.439l-9.746,0c-2.38,0 -4.275,1.852 -4.461,4.183Zm59.645,3.644l-7.828,-7.827l-18.388,0l26.216,26.216l-0,-18.389Zm-59.715,53.121l-0,18.389l59.715,59.715l-0,-18.388l-59.715,-59.716Zm-0,-37.612l-0,18.39l59.715,59.716l-0,-18.391l-59.715,-59.715Zm83.479,37.614l0,18.385l59.715,59.716l0,-18.386l-59.715,-59.715Zm59.715,-53.121l-7.828,-7.829l-18.387,0l26.215,26.216l0,-18.387Zm-59.645,-3.644l59.645,59.645l0,-18.392l-45.437,-45.438l-9.747,0c-2.379,0 -4.275,1.853 -4.461,4.185Zm-0.07,187.986l7.829,7.829l18.39,-0l-26.219,-26.219l0,18.39Zm0,-168.834l0,18.39l59.715,59.716l0,-18.391l-59.715,-59.715Zm59.645,172.479l-59.645,-59.646l0,18.388l45.442,45.442l9.742,0c2.38,-0 4.275,-1.853 4.461,-4.184Zm0.07,-37.543l-59.715,-59.715l0,18.39l59.715,59.715l0,-18.39Z" style="fill-rule:nonzero;"/></g></svg>