<?xml version="1.0" encoding="UTF-8" standalone="no"?><!DOCTYPE svg PUBLIC "-//W3C//DTD SVG 1.1//EN" "http://www.w3.org/Graphics/SVG/1.1/DTD/svg11.dtd"><svg width="100%" height="100%" viewBox="0 0 400 204" version="1.1" xmlns="http://www.w3.org/2000/svg" xmlns:xlink="http://www.w3.org/1999/xlink" xml:space="preserve" xmlns:serif="http://www.serif.com/" style="fill-rule:evenodd;clip-rule:evenodd;stroke-linejoin:round;stroke-miterlimit:2;"><g><path d="M310.398,203.125l-51.444,-0c-2.541,-0 -4.602,-2.06 -4.602,-4.602l0,-193.921c0,-2.542 2.061,-4.602 4.602,-4.602l51.444,0c2.542,0 4.602,2.06 4.602,4.602l0,193.921c0,2.542 -2.06,4.602 -4.602,4.602Zm-80.181,-4.602l-0,-193.921c-0,-2.542 -2.061,-4.602 -4.602,-4.602l-51.445,0c-2.541,0 -4.602,2.06 -4.602,4.602l0,193.921c0,2.542 2.061,4.602 4.602,4.602l51.445,0c2.541,-0 4.602,-2.06 4.602,-4.602Zm-84.785,-0l0,-193.921c0,-2.542 -2.06,-4.602 -4.602,-4.602l-51.444,0c-2.542,0 -4.602,2.06 -4.602,4.602l0,193.921c0,2.542 2.06,4.602 4.602,4.602l51.444,0c2.542,-0 4.602,-2.06 4.602,-4.602Zm-84.784,-0l0,-193.921c0,-2.542 -2.06,-4.602 -4.602,-4.602l-51.444,0c-2.541,0 -4.602,2.06 -4.602,4.602l-0,193.921c-0,2.542 2.061,4.602 4.602,4.602l51.444,0c2.542,-0 4.602,-2.06 4.602,-4.602Zm278.488,-79.748l60.649,60.647l-0,-18.677l-60.649,-60.646l0,18.676Zm0,-76.397l60.649,60.649l-0,-18.678l-60.649,-60.649l0,18.678Zm0,38.198l60.649,60.647l-0,-18.673l-60.649,-60.649l0,18.675Zm60.578,118.298l-60.578,-60.577l0,18.677l46.151,46.151l9.896,-0c2.417,-0 4.343,-1.882 4.531,-4.251Zm0.071,-190.924l-7.95,-7.95l-18.676,0l26.626,26.626l-0,-18.676Zm-60.577,-3.701l60.577,60.578l-0,-18.678l-46.149,-46.149l-9.898,0c-2.416,0 -4.341,1.881 -4.53,4.249Zm-0.072,190.925l7.951,7.951l18.678,-0l-26.629,-26.628l0,18.677Z" style="fill-rule:nonzero;"/></g></svg>