<?xml version="1.0" encoding="UTF-8" standalone="no"?>
<!DOCTYPE svg PUBLIC "-//W3C//DTD SVG 1.1//EN" "http://www.w3.org/Graphics/SVG/1.1/DTD/svg11.dtd">
<svg width="100%" height="100%" viewBox="0 0 256 256" version="1.1" xmlns="http://www.w3.org/2000/svg" xmlns:xlink="http://www.w3.org/1999/xlink" xml:space="preserve" xmlns:serif="http://www.serif.com/" style="fill-rule:evenodd;clip-rule:evenodd;stroke-linejoin:round;stroke-miterlimit:2;">
    <g transform="matrix(1.04321,0,0,1.04888,-4.06213,-5.73523)">
        <path d="M249.289,66.485L249.289,188.52C249.289,222.197 221.8,249.538 187.94,249.538L65.243,249.538C31.383,249.538 3.894,222.197 3.894,188.52L3.894,66.485C3.894,32.809 31.383,5.468 65.243,5.468L187.94,5.468C221.8,5.468 249.289,32.809 249.289,66.485Z" style="fill:rgb(235,235,235);"/>
        <path d="M249.289,66.485L249.289,188.52C249.289,222.197 221.8,249.538 187.94,249.538L65.243,249.538C31.383,249.538 3.894,222.197 3.894,188.52L3.894,66.485C3.894,32.809 31.383,5.468 65.243,5.468L187.94,5.468C221.8,5.468 249.289,32.809 249.289,66.485ZM241.621,66.485C241.621,37.019 217.567,13.095 187.94,13.095L65.243,13.095C35.616,13.095 11.562,37.019 11.562,66.485L11.562,188.52C11.562,217.987 35.616,241.911 65.243,241.911L187.94,241.911C217.567,241.911 241.621,217.987 241.621,188.52L241.621,66.485Z"/>
    </g>
    <g transform="matrix(2.56686,0,0,2.56686,-0.353891,-0.356192)">
        <path d="M84.375,44.043L80.543,45.836L78.086,47.004L64.793,53.297L61.418,54.84L61.418,54.883C59.5,59.301 55.125,62.426 50,62.426C48.793,62.426 47.625,62.258 46.543,61.883L43.086,63.508L38.629,65.59L33.336,68.09L30.668,69.34C36.918,72.09 43.625,73.422 50.293,73.422C62.918,73.422 75.5,68.629 85.125,59.047L93.832,50.297L86.539,43.004L84.371,44.047L84.375,44.043Z" style="fill-rule:nonzero;"/>
        <path d="M23.895,65.742L44.348,56.113L46.539,55.086L61.336,48.121L62.211,47.711L93.711,32.883L93.754,32.84L91.086,27.215L76.133,34.262C57.09,22.137 31.508,24.387 14.883,40.969L6.176,49.719L15.508,59.051C16.383,59.926 17.297,60.754 18.211,61.547L6.258,67.176L8.883,72.719L8.926,72.801L23.883,65.758L23.903,65.75L23.895,65.742ZM37.583,50C37.583,43.168 43.165,37.582 50.001,37.582C53.833,37.582 57.251,39.332 59.501,42.082L60.954,41.398L59.501,42.082L53.458,44.914L53.466,44.922L48.689,47.176L53.458,44.914C52.501,44.246 51.29,43.832 50.001,43.832C46.798,43.832 44.138,46.324 43.88,49.441L41.232,50.691L37.794,52.293C37.794,52.293 37.798,52.301 37.798,52.309L30.009,55.977L37.786,52.293C37.661,51.543 37.579,50.793 37.579,50L37.583,50Z" style="fill-rule:nonzero;"/>
    </g>
</svg>
