<?xml version="1.0" encoding="UTF-8" standalone="no"?><!DOCTYPE svg PUBLIC "-//W3C//DTD SVG 1.1//EN" "http://www.w3.org/Graphics/SVG/1.1/DTD/svg11.dtd"><svg width="100%" height="100%" viewBox="0 0 345 300" version="1.1" xmlns="http://www.w3.org/2000/svg" xmlns:xlink="http://www.w3.org/1999/xlink" xml:space="preserve" xmlns:serif="http://www.serif.com/" style="fill-rule:evenodd;clip-rule:evenodd;stroke-linejoin:round;stroke-miterlimit:2;"><path d="M305.823,133.616l15.346,12.721c3.761,3.112 9.415,2.581 12.531,-1.176l8.937,-10.766c3.113,-3.766 2.582,-9.425 -1.177,-12.547l-130.159,-107.864c-22.512,-18.645 -55.409,-18.645 -77.921,-0l-130.175,107.864c-3.759,3.122 -4.29,8.781 -1.177,12.547l8.937,10.813c3.116,3.757 8.77,4.288 12.531,1.177l15.362,-12.722l-0,105.273c-0,33.499 27.565,61.064 61.064,61.064l8.905,0c4.886,0 8.905,-4.02 8.905,-8.905l0,-72.291c0,-18.006 14.817,-32.823 32.823,-32.823l43.571,0c0.022,0 0.043,0 0.064,0c17.997,0 32.806,14.81 32.806,32.807c0,0.005 0,0.01 0,0.016l0,72.243c0,4.885 4.02,8.905 8.905,8.905l8.906,0c33.501,0 61.071,-27.562 61.08,-61.064l-0.064,-105.272Z" style="fill-rule:nonzero;"/></svg>