<?xml version="1.0" encoding="UTF-8" standalone="no"?><!DOCTYPE svg PUBLIC "-//W3C//DTD SVG 1.1//EN" "http://www.w3.org/Graphics/SVG/1.1/DTD/svg11.dtd"><svg width="100%" height="100%" viewBox="0 0 300 300" version="1.1" xmlns="http://www.w3.org/2000/svg" xmlns:xlink="http://www.w3.org/1999/xlink" xml:space="preserve" xmlns:serif="http://www.serif.com/" style="fill-rule:evenodd;clip-rule:evenodd;stroke-linejoin:round;stroke-miterlimit:2;"><g><circle cx="150" cy="150" r="142.697" style="fill:#fff;"/><g><path d="M150,125.58c-13.489,0 -24.42,10.931 -24.42,24.42c0,13.485 10.931,24.415 24.42,24.415c13.485,0.005 24.415,-10.93 24.415,-24.415c0.005,-13.489 -10.93,-24.42 -24.415,-24.42Z" style="fill-rule:nonzero;"/><path d="M-0,150c-0,-82.845 67.155,-150 150,-150c82.841,-0 150,67.155 150,150c-0.004,82.841 -67.159,150 -150,150c-82.845,-0.004 -150,-67.159 -150,-150Zm238.86,-75.625c1.254,-3.76 0.276,-7.908 -2.528,-10.707c-2.804,-2.804 -6.947,-3.782 -10.711,-2.528l-105.162,35.051c-11.457,3.822 -20.446,12.811 -24.268,24.268l-35.051,105.162c-1.254,3.764 -0.276,7.907 2.528,10.711c2.804,2.8 6.947,3.782 10.707,2.528l105.162,-35.056c11.457,-3.817 20.45,-12.81 24.267,-24.267l35.056,-105.162Z"/></g></g></svg>