<?xml version="1.0" encoding="UTF-8" standalone="no"?><!DOCTYPE svg PUBLIC "-//W3C//DTD SVG 1.1//EN" "http://www.w3.org/Graphics/SVG/1.1/DTD/svg11.dtd"><svg width="100%" height="100%" viewBox="0 0 300 300" version="1.1" xmlns="http://www.w3.org/2000/svg" xmlns:xlink="http://www.w3.org/1999/xlink" xml:space="preserve" xmlns:serif="http://www.serif.com/" style="fill-rule:evenodd;clip-rule:evenodd;stroke-linejoin:round;stroke-miterlimit:2;"><g><path d="M12.498,50.014l14.798,0c6.772,19.439 28.019,29.705 47.456,22.934c10.745,-3.743 19.191,-12.189 22.934,-22.934l189.772,0c6.902,0 12.498,-5.595 12.498,-12.498c0,-6.902 -5.596,-12.498 -12.498,-12.498l-189.772,0c-6.772,-19.438 -28.019,-29.705 -47.456,-22.933c-10.745,3.743 -19.191,12.189 -22.934,22.933l-14.798,0c-6.902,0 -12.498,5.596 -12.498,12.498c-0,6.903 5.596,12.498 12.498,12.498Zm49.993,-24.996c6.903,0 12.498,5.596 12.498,12.498c-0,6.903 -5.595,12.498 -12.498,12.498c-6.902,0 -12.498,-5.595 -12.498,-12.498c-0,-6.902 5.596,-12.498 12.498,-12.498Z" style="fill-rule:nonzero;"/><path d="M287.458,100.007l-64.79,0c-6.772,-19.437 -28.02,-29.704 -47.457,-22.934c-10.744,3.744 -19.19,12.19 -22.933,22.934l-139.78,0c-6.902,0 -12.498,5.596 -12.498,12.498c-0,6.903 5.596,12.498 12.498,12.498l139.78,0c6.771,19.438 28.018,29.706 47.456,22.934c10.744,-3.743 19.19,-12.189 22.934,-22.934l64.79,0c6.902,0 12.498,-5.595 12.498,-12.498c0,-6.902 -5.596,-12.498 -12.498,-12.498Zm-99.985,24.996c-6.903,0 -12.499,-5.595 -12.499,-12.498c0,-6.902 5.596,-12.498 12.499,-12.498c6.902,0 12.497,5.596 12.497,12.498c0,6.903 -5.595,12.498 -12.497,12.498Z" style="fill-rule:nonzero;"/><path d="M287.458,174.996l-139.779,0c-6.772,-19.437 -28.019,-29.705 -47.457,-22.933c-10.744,3.743 -19.19,12.189 -22.933,22.933l-64.791,0c-6.902,0 -12.498,5.595 -12.498,12.498c-0,6.903 5.596,12.498 12.498,12.498l64.791,0c6.771,19.439 28.018,29.706 47.456,22.934c10.745,-3.743 19.19,-12.189 22.934,-22.934l139.779,0c6.902,0 12.498,-5.595 12.498,-12.498c0,-6.903 -5.596,-12.498 -12.498,-12.498Zm-174.974,24.996c-6.903,0 -12.499,-5.595 -12.499,-12.498c0,-6.903 5.596,-12.498 12.499,-12.498c6.902,0 12.497,5.595 12.497,12.498c0,6.903 -5.595,12.498 -12.497,12.498Z" style="fill-rule:nonzero;"/><path d="M287.458,249.985l-27.296,-0c-6.772,-19.437 -28.019,-29.705 -47.457,-22.933c-10.744,3.743 -19.189,12.189 -22.933,22.933l-177.274,-0c-6.902,-0 -12.498,5.596 -12.498,12.498c-0,6.903 5.596,12.498 12.498,12.498l177.274,0c6.772,19.438 28.018,29.706 47.457,22.934c10.743,-3.743 19.19,-12.189 22.933,-22.934l27.296,0c6.902,0 12.498,-5.595 12.498,-12.498c0,-6.902 -5.596,-12.498 -12.498,-12.498Zm-62.491,24.996c-6.903,0 -12.498,-5.595 -12.498,-12.498c-0,-6.902 5.595,-12.498 12.498,-12.498c6.903,-0 12.498,5.596 12.498,12.498c0,6.903 -5.595,12.498 -12.498,12.498Z" style="fill-rule:nonzero;"/></g></svg>