<?xml version="1.0" encoding="UTF-8" standalone="no"?><!DOCTYPE svg PUBLIC "-//W3C//DTD SVG 1.1//EN" "http://www.w3.org/Graphics/SVG/1.1/DTD/svg11.dtd"><svg width="100%" height="100%" viewBox="0 0 238 300" version="1.1" xmlns="http://www.w3.org/2000/svg" xmlns:xlink="http://www.w3.org/1999/xlink" xml:space="preserve" xmlns:serif="http://www.serif.com/" style="fill-rule:evenodd;clip-rule:evenodd;stroke-linejoin:round;stroke-miterlimit:2;"><g><path d="M74.489,33.613l-0,-12.596c-0,-3.266 2.672,-5.935 5.934,-5.935l21.813,0l-0,-7.96c-0,-3.918 3.204,-7.122 7.122,-7.122l19.118,-0c3.918,-0 7.122,3.204 7.122,7.122l-0,7.96l21.813,0c3.265,0 5.934,2.672 5.934,5.935l0,12.596c0,3.266 -2.672,5.935 -5.934,5.935l-76.985,-0c-3.265,0.003 -5.937,-2.669 -5.937,-5.935Zm-24.939,115.041c1.684,1.622 4.362,1.569 5.984,-0.117l9.307,-9.585c1.628,-1.674 1.593,-4.352 -0.081,-5.984c-1.674,-1.628 -4.352,-1.592 -5.983,0.082l-6.395,6.584l-1.641,-1.576c-1.683,-1.622 -4.362,-1.57 -5.983,0.117c-1.622,1.684 -1.569,4.362 0.117,5.984l4.675,4.495Zm188.29,-112.154l0,254.316c0,5.057 -4.127,9.184 -9.184,9.184l-219.472,-0c-5.057,-0 -9.184,-4.124 -9.184,-9.184l0,-254.316c0,-5.056 4.127,-9.183 9.184,-9.183l56.822,-0l0,6.299c0,7.948 6.473,14.421 14.42,14.421l76.991,-0c7.948,-0 14.42,-6.473 14.42,-14.421l0,-6.299l56.823,-0c5.056,-0 9.18,4.123 9.18,9.183Zm-202.834,62.02c0,2.284 1.87,4.15 4.15,4.15l31.3,-0c2.284,-0 4.15,-1.87 4.15,-4.15l0,-31.3c0,-2.284 -1.869,-4.15 -4.15,-4.15l-31.3,-0c-2.284,-0 -4.15,1.869 -4.15,4.15l0,31.3Zm0,57.935c0,2.284 1.87,4.15 4.15,4.15l31.3,-0c2.284,-0 4.15,-1.87 4.15,-4.15l0,-31.3c0,-2.284 -1.869,-4.15 -4.15,-4.15l-31.3,-0c-2.284,-0 -4.15,1.869 -4.15,4.15l0,31.3Zm36.145,100.298c-0.705,-0.258 -1.393,-0.535 -2.039,-0.744c-0.688,1.093 -1.341,2.492 -2.176,3.572c-3.024,3.899 -7.239,5.68 -12.13,5.68c-4.89,0 -9.105,-1.781 -12.13,-5.68c-0.835,-1.08 -1.491,-2.479 -2.176,-3.572c-0.642,0.205 -1.334,0.483 -2.039,0.744l0,25.786c0,0.976 1.064,1.119 1.53,0.78l14.247,-10.365c0.343,-0.251 0.79,-0.251 1.133,0l14.247,10.365c0.466,0.339 1.53,0.196 1.53,-0.78l-0,-25.786l0.003,-0Zm16.153,-45.782c-1.051,-5.954 5.954,-7.821 2.208,-14.306c-3.752,-6.502 -8.848,-1.341 -13.493,-5.24c-4.649,-3.898 -0.451,-9.813 -7.504,-12.381c-7.053,-2.567 -7.641,4.659 -13.706,4.659c-6.068,-0 -6.652,-7.226 -13.705,-4.659c-7.054,2.568 -2.858,8.479 -7.504,12.381c-4.649,3.899 -9.742,-1.259 -13.493,5.24c-3.746,6.485 3.259,8.355 2.208,14.306c-1.054,5.973 -8.273,5.295 -6.968,12.687c1.305,7.393 7.856,4.287 10.89,9.54c3.034,5.252 -2.933,9.373 2.819,14.198c5.751,4.825 8.772,-1.765 14.472,0.31c5.699,2.075 3.778,9.066 11.285,9.066c7.507,0 5.585,-6.991 11.285,-9.066c5.699,-2.075 8.723,4.515 14.472,-0.31c5.752,-4.825 -0.215,-8.946 2.819,-14.198c3.034,-5.253 9.585,-2.147 10.89,-9.54c1.295,-7.392 -5.922,-6.711 -6.975,-12.687Zm89.159,59.628c0,-2.343 -1.898,-4.242 -4.241,-4.242l-66.773,0c-2.342,0 -4.241,1.899 -4.241,4.242c0,2.342 1.899,4.241 4.241,4.241l66.773,-0c2.343,0.003 4.241,-1.899 4.241,-4.241Zm30.612,-27.839c0,-2.342 -1.899,-4.241 -4.241,-4.241l-97.385,-0c-2.342,-0 -4.241,1.899 -4.241,4.241c0,2.342 1.899,4.241 4.241,4.241l97.385,0c2.342,0.004 4.241,-1.899 4.241,-4.241Zm-101.626,-25.855l66.773,0c2.343,0 4.241,-1.899 4.241,-4.241c0,-2.343 -1.898,-4.241 -4.241,-4.241l-66.773,-0c-2.342,-0 -4.241,1.898 -4.241,4.241c0,2.342 1.899,4.241 4.241,4.241Zm101.626,-32.08c0,-2.342 -1.899,-4.241 -4.241,-4.241l-97.385,-0c-2.342,-0 -4.241,1.899 -4.241,4.241c0,2.343 1.899,4.241 4.241,4.241l97.385,0c2.342,0 4.241,-1.898 4.241,-4.241Zm-101.626,-25.858l66.773,-0c2.343,-0 4.241,-1.899 4.241,-4.241c0,-2.343 -1.898,-4.242 -4.241,-4.242l-66.773,0c-2.342,0 -4.241,1.899 -4.241,4.242c-0.003,2.342 1.899,4.241 4.241,4.241Zm101.626,-32.08c0,-2.342 -1.899,-4.241 -4.241,-4.241l-97.385,-0c-2.342,-0 -4.241,1.899 -4.241,4.241c0,2.343 1.899,4.241 4.241,4.241l97.385,0c2.342,0 4.241,-1.898 4.241,-4.241Zm-101.626,-25.855l66.773,0c2.343,0 4.241,-1.899 4.241,-4.241c0,-2.343 -1.898,-4.241 -4.241,-4.241l-66.773,-0c-2.342,-0 -4.241,1.898 -4.241,4.241c-0.003,2.339 1.899,4.241 4.241,4.241Zm101.626,-32.083c0,-2.343 -1.899,-4.241 -4.241,-4.241l-97.385,-0c-2.342,-0 -4.241,1.898 -4.241,4.241c0,2.342 1.899,4.241 4.241,4.241l97.385,0c2.342,0.003 4.241,-1.899 4.241,-4.241Zm-152.269,128.867c-10.945,0 -19.816,8.871 -19.816,19.817c-0,10.945 8.871,19.816 19.816,19.816c10.946,-0 19.816,-8.871 19.816,-19.816c0,-10.943 -8.87,-19.817 -19.816,-19.817Zm-5.256,-107.097c1.684,1.622 4.362,1.57 5.984,-0.117l9.307,-9.585c1.628,-1.674 1.593,-4.352 -0.081,-5.984c-1.674,-1.628 -4.352,-1.592 -5.983,0.082l-6.395,6.584l-1.641,-1.576c-1.683,-1.622 -4.362,-1.569 -5.983,0.117c-1.622,1.684 -1.569,4.362 0.117,5.984l4.675,4.495Z" style="fill-rule:nonzero;"/></g></svg>