<?xml version="1.0" encoding="UTF-8" standalone="no"?><!DOCTYPE svg PUBLIC "-//W3C//DTD SVG 1.1//EN" "http://www.w3.org/Graphics/SVG/1.1/DTD/svg11.dtd"><svg width="100%" height="100%" viewBox="0 0 534 534" version="1.1" xmlns="http://www.w3.org/2000/svg" xmlns:xlink="http://www.w3.org/1999/xlink" xml:space="preserve" xmlns:serif="http://www.serif.com/" style="fill-rule:evenodd;clip-rule:evenodd;stroke-linejoin:round;stroke-miterlimit:2;"><g><circle cx="266.666" cy="266.666" r="260.416" style="fill:#fff;"/><path d="M266.666,6.25c143.728,0 260.417,116.689 260.417,260.416c0,143.728 -116.689,260.417 -260.417,260.417c-143.727,0 -260.416,-116.689 -260.416,-260.417c-0,-143.727 116.689,-260.416 260.416,-260.416Z"/><path d="M252.044,90.84l-48.88,39.115c-10.273,8.239 -19.582,20.802 -26.778,34.687c-4.452,-1.271 -9.056,-2.136 -13.885,-2.136l-52.085,0c-28.635,0 -52.083,23.448 -52.083,52.085l0,104.166c0,28.635 23.448,52.083 52.083,52.083l52.085,0c4.829,0 9.433,-0.917 13.885,-2.136c7.196,13.887 16.505,26.449 26.778,34.637l48.88,39.113c22.354,17.905 40.665,9.105 40.665,-19.531l-0,-312.5c-0,-28.635 -18.311,-37.434 -40.665,-19.583Z" style="fill:#f20d0d;fill-rule:nonzero;"/><path d="M362.416,200.298c-7.859,-7.325 -20.271,-6.919 -27.593,0.966c-7.375,7.883 -6.917,20.243 0.966,27.618c0.203,0.154 20.016,19.633 19.584,41.302c-0.206,11.849 -6.436,22.937 -19.024,33.771c-8.164,7.02 -9.081,19.38 -2.035,27.517c3.866,4.527 9.308,6.816 14.801,6.816c4.526,-0 9.055,-1.576 12.741,-4.729c21.186,-18.26 32.121,-39.318 32.579,-62.665c0.76,-39.621 -30.672,-69.377 -32.019,-70.596Z" style="fill:#f20d0d;fill-rule:nonzero;"/><path d="M405.471,127.921c-9.409,-5.342 -21.313,-1.933 -26.576,7.476c-5.265,9.409 -1.907,21.31 7.504,26.602c27.312,15.31 49.539,63.525 49.539,107.573c-0,41.506 -21.769,86.213 -49.539,101.776c-9.411,5.239 -12.769,17.141 -7.504,26.552c3.587,6.409 10.198,10.018 17.063,10.018c3.206,-0 6.511,-0.812 9.513,-2.492c45.649,-25.583 69.529,-87.687 69.529,-135.854c-0,-51.065 -23.88,-116.121 -69.529,-141.651Z" style="fill:#f20d0d;fill-rule:nonzero;"/></g></svg>