<?xml version="1.0" encoding="UTF-8" standalone="no"?><!DOCTYPE svg PUBLIC "-//W3C//DTD SVG 1.1//EN" "http://www.w3.org/Graphics/SVG/1.1/DTD/svg11.dtd"><svg width="100%" height="100%" viewBox="0 0 338 300" version="1.1" xmlns="http://www.w3.org/2000/svg" xmlns:xlink="http://www.w3.org/1999/xlink" xml:space="preserve" xmlns:serif="http://www.serif.com/" style="fill-rule:evenodd;clip-rule:evenodd;stroke-linejoin:round;stroke-miterlimit:2;"><g><path d="M157.005,7.491l-39.618,31.703c-8.326,6.678 -15.871,16.86 -21.704,28.114c-3.608,-1.03 -7.34,-1.731 -11.254,-1.731l-42.215,0c-23.209,0 -42.214,19.005 -42.214,42.215l-0,84.428c-0,23.209 19.005,42.214 42.214,42.214l42.215,0c3.914,0 7.646,-0.743 11.254,-1.731c5.833,11.255 13.378,21.437 21.704,28.073l39.618,31.702c18.118,14.512 32.959,7.38 32.959,-15.83l-0,-253.285c-0,-23.209 -14.841,-30.341 -32.959,-15.872Z" style="fill-rule:nonzero;"/><path d="M246.463,96.208c-6.37,-5.937 -16.43,-5.608 -22.365,0.783c-5.977,6.389 -5.606,16.407 0.783,22.384c0.165,0.125 16.223,15.913 15.873,33.476c-0.167,9.604 -5.216,18.591 -15.419,27.372c-6.617,5.69 -7.36,15.708 -1.649,22.303c3.133,3.669 7.544,5.524 11.996,5.524c3.668,0 7.339,-1.277 10.327,-3.833c17.171,-14.8 26.034,-31.867 26.405,-50.79c0.616,-32.114 -24.86,-56.231 -25.951,-57.219Z" style="fill-rule:nonzero;"/><path d="M281.359,37.545c-7.626,-4.329 -17.274,-1.566 -21.54,6.06c-4.267,7.626 -1.546,17.272 6.082,21.561c22.137,12.409 40.152,51.488 40.152,87.189c-0,33.641 -17.644,69.877 -40.152,82.491c-7.628,4.246 -10.349,13.893 -6.082,21.52c2.907,5.195 8.266,8.12 13.83,8.12c2.598,0 5.277,-0.658 7.71,-2.02c36.999,-20.735 56.354,-71.071 56.354,-110.111c0,-41.389 -19.355,-94.117 -56.354,-114.81Z" style="fill-rule:nonzero;"/></g></svg>