<?xml version="1.0" encoding="UTF-8" standalone="no"?><!DOCTYPE svg PUBLIC "-//W3C//DTD SVG 1.1//EN" "http://www.w3.org/Graphics/SVG/1.1/DTD/svg11.dtd"><svg width="100%" height="100%" viewBox="0 0 297 187" version="1.1" xmlns="http://www.w3.org/2000/svg" xmlns:xlink="http://www.w3.org/1999/xlink" xml:space="preserve" xmlns:serif="http://www.serif.com/" style="fill-rule:evenodd;clip-rule:evenodd;stroke-linejoin:round;stroke-miterlimit:2;"><g><g><g><g><path d="M235.332,0c-34.687,0 -63.125,28.125 -63.125,63.125c0,3.75 3.125,6.875 6.875,6.875c3.75,0 6.875,-3.125 6.875,-6.875c0,-26.875 21.875,-49.063 49.063,-49.063c29.375,0 47.5,17.813 47.5,46.25c-0,11.563 -6.875,20.626 -14.063,30.313c-7.187,9.375 -14.375,19.375 -15.937,32.187c-2.813,24.063 -12.188,50 -29.375,50c-17.188,0 -25,-14.062 -25,-28.125c-0,-3.75 -3.125,-6.875 -6.875,-6.875c-3.75,0 -6.875,3.125 -6.875,6.875c-0,20.938 13.437,42.188 39.062,42.188c22.5,-0 38.75,-23.438 43.438,-62.5c0.937,-9.063 6.875,-16.875 13.125,-25.313c7.812,-10.625 16.875,-22.5 16.875,-38.437c-0,-36.25 -24.688,-60.625 -61.563,-60.625Z" style="fill-rule:nonzero;"/><path d="M235.332,40.938c9.688,-0 19.688,4.687 19.688,14.687c-0,3.75 3.125,6.875 6.875,6.875c3.75,0 6.875,-3.125 6.875,-6.875c-0,-16.875 -14.063,-28.75 -33.75,-28.75c-10,0 -20.313,5 -27.813,13.125c-6.562,7.188 -9.687,15.938 -9.062,24.375c0.625,6.875 4.687,12.813 9.062,19.375c7.5,11.25 7.5,25.313 3.438,34.688c-6.563,14.687 10,22.812 20.312,15.937c7.813,-5.312 4.375,-24.062 -0.625,-37.5c-0.937,-3.125 -2.5,-5.937 -3.75,-8.75c-0.312,-0.625 -0.625,-1.25 -0.937,-1.875c-2.188,-3.75 -4.375,-7.187 -6.563,-10c-3.437,-5 -6.562,-9.687 -6.875,-13.125c-0.312,-4.375 1.563,-9.375 5.313,-13.437c5.312,-5.625 11.875,-8.75 17.812,-8.75Z" style="fill-rule:nonzero;"/></g><g><g><g><path d="M111.582,142.813c2.188,-0.313 3.75,-1.563 4.688,-3.438c3.437,-5.938 5,-12.813 5,-20c-0,-7.188 -1.563,-13.438 -4.688,-19.688c-0.937,-1.875 -2.812,-3.125 -4.687,-3.437l-1.25,-0c-1.563,-0 -3.125,0.625 -4.375,1.875l-0.313,0.312c-2.187,1.875 -2.812,5.625 -1.25,8.438c2.188,4.062 3.438,8.438 3.438,13.125c-0,4.375 -1.25,9.063 -3.438,13.125c-1.562,2.813 -0.937,6.563 1.25,8.438l0.313,0.312c1.25,0.625 3.437,1.25 5.312,0.937Z" style="fill-rule:nonzero;"/><path d="M136.27,158.438c7.812,-11.251 12.187,-24.688 12.187,-38.751c0,-14.062 -4.062,-27.187 -12.187,-38.75c-1.25,-1.562 -2.813,-2.812 -4.688,-2.812l-0.625,-0c-1.562,-0 -3.125,0.625 -4.375,1.875c-2.812,2.5 -3.125,6.25 -1.25,9.062c6.25,9.063 9.688,19.688 9.688,30.626c-0,10.937 -3.438,21.562 -9.688,30.624c-1.875,2.813 -1.562,6.563 0.938,9.063c1.562,1.563 3.437,2.188 5.312,1.875c1.875,-0.313 3.75,-1.25 4.688,-2.813Z" style="fill-rule:nonzero;"/><path d="M146.27,177.5c1.25,1.25 3.125,1.875 5,1.563c1.875,-0.313 3.437,-1.25 4.687,-2.5c12.5,-16.563 19.063,-36.25 19.063,-57.188c-0,-20.937 -6.563,-40.625 -19.063,-57.187c-1.25,-1.563 -2.812,-2.5 -4.687,-2.5c-1.875,-0.313 -3.75,0.312 -5,1.562l-0.313,0.313c-2.5,2.187 -2.812,6.25 -0.937,9.062c10.625,14.063 16.25,30.938 16.25,48.75c-0,17.813 -5.625,34.688 -16.25,48.75c-1.875,3.125 -1.563,6.875 1.25,9.375Z" style="fill-rule:nonzero;"/></g></g></g><path d="M4.082,166.25l18.125,-8.125c7.188,4.688 15.625,7.188 24.688,7.188c25.312,-0 45.625,-20.313 45.625,-45.625c-0,-25.313 -20.313,-45.625 -45.625,-45.625c-25.313,-0 -45.625,20.312 -45.625,45.625c-0,9.062 2.812,17.5 7.187,24.687l-8.125,17.813c-1.25,2.5 1.25,5.312 3.75,4.062Zm58.75,-46.563c0,-4.374 3.438,-7.812 7.813,-7.812c4.375,0 7.812,3.438 7.812,7.813c0,4.374 -3.437,7.812 -7.812,7.812c-4.375,0 -7.813,-3.438 -7.813,-7.813Zm-23.75,0.001c0,-4.376 3.438,-7.813 7.813,-7.813c4.375,0 7.812,3.438 7.812,7.813c0,4.374 -3.437,7.812 -7.812,7.812c-4.375,0 -7.813,-3.438 -7.813,-7.813Zm-23.437,0.001c-0,-4.376 3.437,-7.813 7.812,-7.813c4.375,0 7.813,3.438 7.813,7.813c-0,4.374 -3.438,7.812 -7.813,7.812c-4.375,0 -7.812,-3.438 -7.812,-7.813Z" style="fill-rule:nonzero;"/></g></g></g></svg>