<?xml version="1.0" encoding="UTF-8" standalone="no"?><!DOCTYPE svg PUBLIC "-//W3C//DTD SVG 1.1//EN" "http://www.w3.org/Graphics/SVG/1.1/DTD/svg11.dtd"><svg width="100%" height="100%" viewBox="0 0 75 48" version="1.1" xmlns="http://www.w3.org/2000/svg" xmlns:xlink="http://www.w3.org/1999/xlink" xml:space="preserve" xmlns:serif="http://www.serif.com/" style="fill-rule:evenodd;clip-rule:evenodd;stroke-linejoin:round;stroke-miterlimit:2;"><g><g><g><path d="M59.448,0c-8.762,0 -15.946,7.105 -15.946,15.946c0,0.948 0.789,1.737 1.737,1.737c0.947,-0 1.736,-0.789 1.736,-1.737c0,-6.789 5.526,-12.394 12.394,-12.394c7.421,0 12,4.5 12,11.684c-0,2.921 -1.737,5.21 -3.553,7.657c-1.815,2.368 -3.631,4.895 -4.026,8.131c-0.71,6.079 -3.079,12.631 -7.42,12.631c-4.342,-0 -6.316,-3.553 -6.316,-7.105c0,-0.947 -0.789,-1.737 -1.736,-1.737c-0.948,0 -1.737,0.79 -1.737,1.737c-0,5.289 3.394,10.657 9.868,10.657c5.683,0 9.788,-5.921 10.973,-15.788c0.236,-2.29 1.736,-4.263 3.315,-6.395c1.974,-2.684 4.263,-5.683 4.263,-9.709c-0,-9.158 -6.237,-15.315 -15.552,-15.315Z" style="fill:#eee;fill-rule:nonzero;"/><path d="M59.448,10.342c2.448,-0 4.974,1.184 4.974,3.71c-0,0.947 0.789,1.736 1.737,1.736c0.947,0 1.736,-0.789 1.736,-1.736c0,-4.263 -3.552,-7.263 -8.526,-7.263c-2.526,0 -5.131,1.263 -7.025,3.316c-1.658,1.815 -2.448,4.026 -2.29,6.157c0.158,1.737 1.184,3.237 2.29,4.894c1.894,2.842 1.894,6.395 0.868,8.763c-1.658,3.71 2.526,5.763 5.131,4.026c1.974,-1.342 1.105,-6.078 -0.158,-9.473c-0.236,-0.789 -0.631,-1.5 -0.947,-2.21c-0.079,-0.158 -0.158,-0.316 -0.237,-0.474c-0.552,-0.947 -1.105,-1.816 -1.658,-2.526c-0.868,-1.263 -1.657,-2.447 -1.736,-3.316c-0.079,-1.105 0.394,-2.368 1.342,-3.394c1.342,-1.421 3,-2.21 4.499,-2.21Z" style="fill:#eee;fill-rule:nonzero;"/></g><g><g><g><path d="M28.187,36.077c0.553,-0.079 0.948,-0.395 1.185,-0.869c0.868,-1.5 1.263,-3.237 1.263,-5.052c-0,-1.816 -0.395,-3.395 -1.185,-4.974c-0.236,-0.473 -0.71,-0.789 -1.184,-0.868l-0.315,0c-0.395,0 -0.79,0.158 -1.106,0.474l-0.079,0.079c-0.552,0.473 -0.71,1.421 -0.315,2.131c0.552,1.026 0.868,2.132 0.868,3.316c0,1.105 -0.316,2.289 -0.868,3.315c-0.395,0.711 -0.237,1.658 0.315,2.132l0.079,0.079c0.316,0.158 0.869,0.315 1.342,0.236l0,0.001Z" style="fill:#eee;fill-rule:nonzero;"/><path d="M34.424,40.024c1.973,-2.842 3.078,-6.237 3.078,-9.789c0,-3.553 -1.026,-6.868 -3.078,-9.789c-0.316,-0.395 -0.711,-0.711 -1.184,-0.711l-0.158,0c-0.395,0 -0.79,0.158 -1.105,0.474c-0.711,0.632 -0.79,1.579 -0.316,2.289c1.579,2.29 2.447,4.974 2.447,7.737c0,2.763 -0.868,5.447 -2.447,7.736c-0.474,0.711 -0.395,1.658 0.237,2.289c0.394,0.395 0.868,0.553 1.342,0.474c0.473,-0.079 0.947,-0.316 1.184,-0.711l-0,0.001Z" style="fill:#eee;fill-rule:nonzero;"/><path d="M36.95,44.839c0.316,0.316 0.789,0.474 1.263,0.395c0.474,-0.079 0.868,-0.316 1.184,-0.632c3.158,-4.184 4.816,-9.157 4.816,-14.446c-0,-5.289 -1.658,-10.263 -4.816,-14.446c-0.316,-0.395 -0.71,-0.632 -1.184,-0.632c-0.474,-0.079 -0.947,0.079 -1.263,0.395l-0.079,0.079c-0.632,0.552 -0.71,1.579 -0.237,2.289c2.684,3.552 4.105,7.815 4.105,12.315c0,4.5 -1.421,8.762 -4.105,12.315c-0.473,0.789 -0.395,1.736 0.316,2.368Z" style="fill:#eee;fill-rule:nonzero;"/></g></g></g><path d="M1.031,41.997l4.579,-2.052c1.816,1.184 3.947,1.815 6.236,1.815c6.395,0 11.526,-5.131 11.526,-11.525c-0,-6.395 -5.131,-11.526 -11.526,-11.526c-6.394,0 -11.525,5.131 -11.525,11.526c-0,2.289 0.71,4.421 1.815,6.236l-2.052,4.5c-0.316,0.632 0.316,1.342 0.947,1.026Zm14.841,-11.762c0,-1.105 0.869,-1.974 1.974,-1.974c1.105,0 1.973,0.869 1.973,1.974c0,1.105 -0.868,1.973 -1.973,1.973c-1.105,0 -1.974,-0.868 -1.974,-1.973Zm-5.999,-0c-0,-1.106 0.868,-1.974 1.973,-1.974c1.106,0 1.974,0.869 1.974,1.974c-0,1.105 -0.868,1.973 -1.974,1.973c-1.105,0 -1.973,-0.868 -1.973,-1.973l-0,-0Zm-5.921,0c0,-1.105 0.869,-1.974 1.974,-1.974c1.105,0 1.973,0.869 1.973,1.974c0,1.105 -0.868,1.974 -1.973,1.974c-1.105,-0 -1.974,-0.869 -1.974,-1.974l0,0Z" style="fill:#eee;fill-rule:nonzero;"/></g></g></svg>