<?xml version="1.0" encoding="UTF-8" standalone="no"?><!DOCTYPE svg PUBLIC "-//W3C//DTD SVG 1.1//EN" "http://www.w3.org/Graphics/SVG/1.1/DTD/svg11.dtd"><svg width="100%" height="100%" viewBox="0 0 5000 5000" version="1.1" xmlns="http://www.w3.org/2000/svg" xmlns:xlink="http://www.w3.org/1999/xlink" xml:space="preserve" xmlns:serif="http://www.serif.com/" style="fill-rule:evenodd;clip-rule:evenodd;stroke-linejoin:round;stroke-miterlimit:2;"><path d="M3644.88,344.354c956.708,632.292 1219.67,1920.38 587.417,2877.08c-326.238,493.625 -827,802.541 -1366.75,899.166l-347.446,853.417c-6.38,15.804 -20.898,25.732 -37.988,25.928c-17.091,0.26 -31.788,-9.343 -38.558,-25.082l-377.18,-867.583c-246.012,-52.817 -486.541,-151.35 -709.083,-298.437c-956.708,-632.209 -1219.75,-1920.38 -587.458,-2877c632.291,-956.75 1920.46,-1219.67 2877.08,-587.459l-0.037,-0.034Z"/><g><circle cx="1374.65" cy="2022.17" r="408.776" style="fill:#fff;"/><circle cx="2500.06" cy="2022.17" r="408.776" style="fill:#fff;"/><circle cx="3625.46" cy="2022.17" r="408.776" style="fill:#fff;"/></g></svg>