<?xml version="1.0" encoding="UTF-8" standalone="no"?><!DOCTYPE svg PUBLIC "-//W3C//DTD SVG 1.1//EN" "http://www.w3.org/Graphics/SVG/1.1/DTD/svg11.dtd"><svg width="100%" height="100%" viewBox="0 0 400 204" version="1.1" xmlns="http://www.w3.org/2000/svg" xmlns:xlink="http://www.w3.org/1999/xlink" xml:space="preserve" xmlns:serif="http://www.serif.com/" style="fill-rule:evenodd;clip-rule:evenodd;stroke-linejoin:round;stroke-miterlimit:2;"><g><path d="M310.398,203.125l-51.444,-0c-2.541,-0 -4.602,-2.06 -4.602,-4.602l0,-193.921c0,-2.542 2.061,-4.602 4.602,-4.602l51.444,0c2.542,0 4.602,2.06 4.602,4.602l0,193.921c0,2.542 -2.06,4.602 -4.602,4.602Zm89.387,-4.602l-0,-193.921c-0,-2.542 -2.061,-4.602 -4.602,-4.602l-51.445,0c-2.541,0 -4.602,2.06 -4.602,4.602l0,193.921c0,2.542 2.061,4.602 4.602,4.602l51.445,0c2.541,-0 4.602,-2.06 4.602,-4.602Zm-169.568,-0l-0,-193.921c-0,-2.542 -2.061,-4.602 -4.602,-4.602l-51.445,0c-2.541,0 -4.602,2.06 -4.602,4.602l0,193.921c0,2.542 2.061,4.602 4.602,4.602l51.445,0c2.541,-0 4.602,-2.06 4.602,-4.602Zm-84.785,-0l0,-193.921c0,-2.542 -2.06,-4.602 -4.602,-4.602l-51.444,0c-2.542,0 -4.602,2.06 -4.602,4.602l0,193.921c0,2.542 2.06,4.602 4.602,4.602l51.444,0c2.542,-0 4.602,-2.06 4.602,-4.602Zm-84.784,-0l0,-193.921c0,-2.542 -2.06,-4.602 -4.602,-4.602l-51.444,0c-2.542,0 -4.602,2.06 -4.602,4.602l-0,193.921c-0,2.542 2.06,4.602 4.602,4.602l51.444,0c2.542,-0 4.602,-2.06 4.602,-4.602Z" style="fill-rule:nonzero;"/></g></svg>