<?xml version="1.0" encoding="UTF-8" standalone="no"?><!DOCTYPE svg PUBLIC "-//W3C//DTD SVG 1.1//EN" "http://www.w3.org/Graphics/SVG/1.1/DTD/svg11.dtd"><svg width="100%" height="100%" viewBox="0 0 400 204" version="1.1" xmlns="http://www.w3.org/2000/svg" xmlns:xlink="http://www.w3.org/1999/xlink" xml:space="preserve" xmlns:serif="http://www.serif.com/" style="fill-rule:evenodd;clip-rule:evenodd;stroke-linejoin:round;stroke-miterlimit:2;"><g><path d="M56.046,203.125l-51.444,-0c-2.542,-0 -4.602,-2.06 -4.602,-4.602l-0,-193.921c-0,-2.542 2.06,-4.602 4.602,-4.602l51.444,0c2.542,0 4.602,2.06 4.602,4.602l0,193.921c0,2.542 -2.06,4.602 -4.602,4.602Zm283.09,-122.548l60.649,60.648l-0,-18.675l-60.649,-60.649l0,18.676Zm0,38.199l60.649,60.647l-0,-18.676l-60.649,-60.647l0,18.676Zm60.578,80.098l-60.578,-60.575l0,18.675l46.151,46.151l9.896,-0c2.417,-0 4.343,-1.882 4.531,-4.251Zm-60.578,-3.7l7.951,7.951l18.678,-0l-26.629,-26.628l0,18.677Zm0,-152.796l60.649,60.649l-0,-18.678l-60.649,-60.649l0,18.678Zm0.072,-38.129l60.577,60.578l-0,-18.678l-46.149,-46.149l-9.898,0c-2.416,0 -4.341,1.881 -4.53,4.249Zm60.577,3.701l-7.95,-7.95l-18.676,0l26.626,26.626l-0,-18.676Zm-230.145,-3.702l60.576,60.578l0,-18.678l-46.146,-46.148l-9.9,0c-2.416,0 -4.34,1.881 -4.53,4.248Zm-0.072,190.927l7.95,7.95l18.678,-0l-26.628,-26.628l0,18.678Zm60.578,3.699l-60.578,-60.576l0,18.677l46.15,46.15l9.896,-0c2.417,-0 4.343,-1.882 4.532,-4.251Zm-60.578,-175.175l0,18.677l60.648,60.65l0,-18.677l-60.648,-60.65Zm0,38.2l0,18.676l60.648,60.648l0,-18.675l-60.648,-60.649Zm60.648,-53.947l-7.952,-7.952l-18.672,0l26.624,26.625l0,-18.673Zm0,152.793l-60.648,-60.647l0,18.677l60.648,60.648l0,-18.678Zm-145.432,-98.843l-0,18.676l60.648,60.647l0,-18.674l-60.648,-60.649Zm-0,133.271l7.952,7.952l18.678,-0l-26.63,-26.63l-0,18.678Zm60.648,-187.222l-7.951,-7.951l-18.675,0l26.626,26.627l0,-18.676Zm-0.07,190.922l-60.578,-60.575l-0,18.675l46.152,46.152l9.894,-0c2.418,-0 4.344,-1.883 4.532,-4.252Zm0.07,-19.452l0,-18.673l-60.648,-60.648l-0,18.676l60.648,60.645Zm-60.648,-155.72l-0,18.678l60.648,60.649l0,-18.678l-60.648,-60.649Zm0.071,-19.451l60.577,60.578l0,-18.678l-46.149,-46.15l-9.897,0c-2.417,0 -4.342,1.881 -4.531,4.25Zm169.497,19.45l0,18.678l60.648,60.65l0,-18.678l-60.648,-60.65Zm0.071,-19.451l60.577,60.578l0,-18.678l-46.148,-46.149l-9.898,0c-2.416,0 -4.341,1.881 -4.531,4.249Zm-0.071,190.926l7.95,7.95l18.678,-0l-26.628,-26.627l0,18.677Zm60.648,-34.43l-60.648,-60.646l0,18.678l60.648,60.646l0,-18.678Zm0,-152.795l-7.95,-7.95l-18.675,-0l26.625,26.626l0,-18.676Zm-0.07,190.924l-60.578,-60.575l0,18.676l46.151,46.15l9.895,-0c2.417,-0 4.343,-1.882 4.532,-4.251Zm-60.578,-136.973l0,18.676l60.648,60.646l0,-18.673l-60.648,-60.649Z" style="fill-rule:nonzero;"/></g></svg>