<?xml version="1.0" encoding="UTF-8" standalone="no"?><!DOCTYPE svg PUBLIC "-//W3C//DTD SVG 1.1//EN" "http://www.w3.org/Graphics/SVG/1.1/DTD/svg11.dtd"><svg width="100%" height="100%" viewBox="0 0 326 300" version="1.1" xmlns="http://www.w3.org/2000/svg" xmlns:xlink="http://www.w3.org/1999/xlink" xml:space="preserve" xmlns:serif="http://www.serif.com/" style="fill-rule:evenodd;clip-rule:evenodd;stroke-linejoin:round;stroke-miterlimit:2;"><g><rect x="52.499" y="63.772" width="221.746" height="119.18" style="fill:#fff;"/><path d="M275.028,-0l-225.032,-0c-27.616,-0 -49.996,22.38 -49.996,49.996l-0,147.619c-0,27.603 22.38,49.995 49.996,49.995l62.915,0l40.013,47.906c4.991,5.979 14.185,5.979 19.188,0l40.013,-47.906l62.915,0c27.615,0 49.996,-22.38 49.996,-49.995l-0,-147.619c-0.012,-27.616 -22.392,-49.996 -50.008,-49.996Zm-80.466,159.413l-64.088,-0c-5.769,-0 -10.447,-4.678 -10.447,-10.448c-0,-5.769 4.678,-10.447 10.447,-10.447l64.088,0c5.769,0 10.447,4.678 10.447,10.447c-0,5.77 -4.678,10.448 -10.447,10.448Zm32.038,-50.333l-128.176,0c-5.769,0 -10.447,-4.678 -10.447,-10.447c0,-5.769 4.678,-10.447 10.447,-10.447l128.176,-0c5.769,-0 10.447,4.678 10.447,10.447c-0,5.769 -4.678,10.447 -10.447,10.447Z" style="fill-rule:nonzero;"/></g></svg>