<?xml version="1.0" encoding="UTF-8" standalone="no"?><!DOCTYPE svg PUBLIC "-//W3C//DTD SVG 1.1//EN" "http://www.w3.org/Graphics/SVG/1.1/DTD/svg11.dtd"><svg width="100%" height="100%" viewBox="0 0 534 534" version="1.1" xmlns="http://www.w3.org/2000/svg" xmlns:xlink="http://www.w3.org/1999/xlink" xml:space="preserve" xmlns:serif="http://www.serif.com/" style="fill-rule:evenodd;clip-rule:evenodd;stroke-linejoin:round;stroke-miterlimit:2;"><g><path d="M266.666,6.25c143.728,0 260.417,116.689 260.417,260.416c0,143.728 -116.689,260.417 -260.417,260.417c-143.727,0 -260.416,-116.689 -260.416,-260.417c-0,-143.727 116.689,-260.416 260.416,-260.416Z"/><path d="M153.747,390.187c0.683,31.037 31.358,49.831 58.234,35.055l216.125,-127.096c11.771,-6.932 19.758,-19.632 19.758,-34.516c0,-14.883 -7.987,-27.583 -19.758,-34.514l-216.125,-126.916c-26.876,-14.775 -57.552,3.838 -58.234,34.876l0,253.111Z" style="fill:#f2af0d;fill-rule:nonzero;"/></g></svg>