<?xml version="1.0" encoding="UTF-8" standalone="no"?><!DOCTYPE svg PUBLIC "-//W3C//DTD SVG 1.1//EN" "http://www.w3.org/Graphics/SVG/1.1/DTD/svg11.dtd"><svg width="100%" height="100%" viewBox="0 0 256 256" version="1.1" xmlns="http://www.w3.org/2000/svg" xmlns:xlink="http://www.w3.org/1999/xlink" xml:space="preserve" xmlns:serif="http://www.serif.com/" style="fill-rule:evenodd;clip-rule:evenodd;stroke-linejoin:round;stroke-miterlimit:2;"><rect x="0" y="-0" width="256" height="256" style="fill:#fff;"/><path d="M256,-0l0,256l-256,-0l0,-256l256,-0Zm-10,10l-236,0l0,236l236,-0l0,-236Z" style="fill:#231f20;"/><g><path d="M67.966,192.886c3.711,-4.056 6.034,-9.405 6.034,-15.322c-0,-12.567 -10.229,-22.789 -22.796,-22.789c-12.567,-0 -22.795,10.222 -22.795,22.789c-0,5.917 2.322,11.266 6.033,15.322c-6.903,5.145 -11.442,13.299 -11.442,22.554l-0,4.768c-0,6.96 5.659,12.619 12.619,12.619l31.171,0c6.96,0 12.619,-5.659 12.619,-12.619l0,-4.768c0,-9.255 -4.539,-17.408 -11.442,-22.554l-0.001,-0Z" style="fill-rule:nonzero;"/><path d="M221.556,192.886c3.711,-4.056 6.034,-9.405 6.034,-15.322c-0,-12.567 -10.228,-22.789 -22.796,-22.789c-12.567,-0 -22.795,10.222 -22.795,22.789c0,5.917 2.322,11.266 6.034,15.322c-6.903,5.145 -11.443,13.299 -11.443,22.554l0,4.768c0,6.96 5.659,12.619 12.619,12.619l31.172,0c6.96,0 12.619,-5.659 12.619,-12.619l0,-4.768c0,-9.255 -4.539,-17.408 -11.442,-22.554l-0.002,-0Z" style="fill-rule:nonzero;"/><path d="M200.186,23.173l-144.374,-0c-10.857,-0 -19.688,8.831 -19.688,19.687l0,78.75c0,10.856 8.831,19.688 19.688,19.688l19.687,-0l0,13.125c0,2.486 1.404,4.755 3.627,5.87c2.224,1.102 4.89,0.878 6.871,-0.622l24.5,-18.373l35.004,-0l24.501,18.373c1.153,0.872 2.544,1.314 3.934,1.314c1,-0 2.007,-0.231 2.936,-0.692c2.224,-1.115 3.627,-3.384 3.627,-5.87l-0,-13.125l19.687,-0c10.857,-0 19.688,-8.832 19.688,-19.688l-0,-78.75c-0,-10.856 -8.831,-19.687 -19.688,-19.687Zm-13.125,91.701l-118.124,0c-3.627,0 -6.563,-2.935 -6.563,-6.562c0,-3.627 2.936,-6.563 6.563,-6.563l118.124,0c3.627,0 6.563,2.936 6.563,6.563c-0,3.627 -2.936,6.562 -6.563,6.562Zm0,-26.25l-118.124,0c-3.627,0 -6.563,-2.935 -6.563,-6.562c0,-3.627 2.936,-6.562 6.563,-6.562l118.124,-0c3.627,-0 6.563,2.935 6.563,6.562c-0,3.627 -2.936,6.562 -6.563,6.562Zm0,-26.249l-118.124,-0c-3.627,-0 -6.563,-2.936 -6.563,-6.563c0,-3.627 2.936,-6.562 6.563,-6.562l118.124,-0c3.627,-0 6.563,2.935 6.563,6.562c-0,3.627 -2.936,6.563 -6.563,6.563Z" style="fill-rule:nonzero;"/></g></svg>