<?xml version="1.0" encoding="UTF-8" standalone="no"?><!DOCTYPE svg PUBLIC "-//W3C//DTD SVG 1.1//EN" "http://www.w3.org/Graphics/SVG/1.1/DTD/svg11.dtd"><svg width="100%" height="100%" viewBox="0 0 300 300" version="1.1" xmlns="http://www.w3.org/2000/svg" xmlns:xlink="http://www.w3.org/1999/xlink" xml:space="preserve" xmlns:serif="http://www.serif.com/" style="fill-rule:evenodd;clip-rule:evenodd;stroke-linejoin:round;stroke-miterlimit:2;"><g><path d="M19.565,39.13l26.087,0l0,39.131c-10.761,-0 -19.565,8.804 -19.565,19.565l52.174,0c-0,-10.761 -8.804,-19.565 -19.565,-19.565l-0,-39.131l182.608,0l0,39.131c-10.761,-0 -19.565,8.804 -19.565,19.565l52.174,0c0,-10.761 -8.804,-19.565 -19.565,-19.565l-0,-39.131l26.087,0c10.789,0 19.565,-8.776 19.565,-19.565c-0,-10.789 -8.776,-19.565 -19.565,-19.565l-260.87,-0c-10.789,-0 -19.565,8.776 -19.565,19.565c-0,10.789 8.776,19.565 19.565,19.565Z" style="fill-rule:nonzero;"/><path d="M280.435,110.87l-78.669,-0c-3.216,-25.702 -25.208,-45.653 -51.766,-45.653c-26.558,0 -48.547,19.951 -51.77,45.653l-78.665,-0c-10.789,-0 -19.565,8.776 -19.565,19.565l-0,104.348c-0,10.789 8.776,19.565 19.565,19.565l78.665,-0c3.223,25.701 25.212,45.652 51.77,45.652c26.558,-0 48.55,-19.951 51.766,-45.652l78.669,-0c10.789,-0 19.565,-8.776 19.565,-19.565l-0,-104.348c-0,-10.789 -8.776,-19.565 -19.565,-19.565Zm-247.826,117.391c-3.602,-0 -6.522,-2.92 -6.522,-6.522c-0,-3.602 2.92,-6.522 6.522,-6.522c3.602,0 6.521,2.92 6.521,6.522c0,3.602 -2.919,6.522 -6.521,6.522Zm-0,-78.261c-3.602,-0 -6.522,-2.92 -6.522,-6.522c-0,-3.602 2.92,-6.521 6.522,-6.521c3.602,-0 6.521,2.919 6.521,6.521c0,3.602 -2.919,6.522 -6.521,6.522Zm58.695,26.087c3.602,-0 6.522,2.92 6.522,6.522c0,3.601 -2.92,6.521 -6.522,6.521l-26.087,0l0,19.566l26.087,-0c3.602,-0 6.522,2.92 6.522,6.521c0,3.602 -2.92,6.522 -6.522,6.522l-32.608,0c-3.602,0 -6.522,-2.92 -6.522,-6.522l-0,-65.217c-0,-3.602 2.92,-6.522 6.522,-6.522l32.608,0c3.602,0 6.522,2.92 6.522,6.522c0,3.602 -2.92,6.522 -6.522,6.522l-26.087,-0l0,19.565l26.087,-0Zm64.53,36.213c2.123,4.248 -1.096,9.439 -5.828,9.439c-2.394,0 -4.697,-1.318 -5.84,-3.605l-10.47,-20.941c-0,0 -10.451,20.902 -10.471,20.941c-1.591,3.183 -5.578,4.504 -8.751,2.917c-3.222,-1.611 -4.528,-5.528 -2.917,-8.751l14.846,-29.691l-14.846,-29.692c-1.611,-3.223 -0.305,-7.14 2.917,-8.751c3.226,-1.611 7.14,-0.302 8.751,2.917l10.471,20.941l10.47,-20.941c1.611,-3.219 5.522,-4.528 8.751,-2.917c3.223,1.611 4.528,5.528 2.917,8.751l-14.846,29.692c-0,-0 14.764,29.526 14.846,29.691Zm26.775,2.917c-0,3.602 -2.917,6.522 -6.522,6.522c-3.605,0 -6.522,-2.92 -6.522,-6.522l0,-65.217c0,-3.602 2.917,-6.522 6.522,-6.522c3.605,0 6.522,2.92 6.522,6.522l-0,65.217Zm58.695,-58.695l-13.043,-0l-0,58.695c-0,3.602 -2.917,6.522 -6.522,6.522c-3.605,0 -6.522,-2.92 -6.522,-6.522l0,-58.695l-13.043,-0c-3.605,-0 -6.522,-2.92 -6.522,-6.522c0,-3.602 2.917,-6.522 6.522,-6.522l39.13,0c3.605,0 6.522,2.92 6.522,6.522c0,3.602 -2.917,6.522 -6.522,6.522Zm26.087,71.739c-3.602,-0 -6.521,-2.92 -6.521,-6.522c-0,-3.602 2.919,-6.522 6.521,-6.522c3.602,0 6.522,2.92 6.522,6.522c0,3.602 -2.92,6.522 -6.522,6.522Zm0,-78.261c-3.602,-0 -6.521,-2.92 -6.521,-6.522c-0,-3.602 2.919,-6.521 6.521,-6.521c3.602,-0 6.522,2.919 6.522,6.521c0,3.602 -2.92,6.522 -6.522,6.522Z" style="fill-rule:nonzero;"/></g></svg>