<?xml version="1.0" encoding="UTF-8" standalone="no"?>
<!DOCTYPE svg PUBLIC "-//W3C//DTD SVG 1.1//EN" "http://www.w3.org/Graphics/SVG/1.1/DTD/svg11.dtd">
<svg width="100%" height="100%" viewBox="0 0 256 256" version="1.1" xmlns="http://www.w3.org/2000/svg" xmlns:xlink="http://www.w3.org/1999/xlink" xml:space="preserve" xmlns:serif="http://www.serif.com/" style="fill-rule:evenodd;clip-rule:evenodd;stroke-linejoin:round;stroke-miterlimit:2;">
    <g transform="matrix(1.04321,0,0,1.04888,-4.06213,-5.73523)">
        <path d="M249.289,66.485L249.289,188.52C249.289,222.197 221.8,249.538 187.94,249.538L65.243,249.538C31.383,249.538 3.894,222.197 3.894,188.52L3.894,66.485C3.894,32.809 31.383,5.468 65.243,5.468L187.94,5.468C221.8,5.468 249.289,32.809 249.289,66.485Z" style="fill:rgb(235,235,235);"/>
        <path d="M249.289,66.485L249.289,188.52C249.289,222.197 221.8,249.538 187.94,249.538L65.243,249.538C31.383,249.538 3.894,222.197 3.894,188.52L3.894,66.485C3.894,32.809 31.383,5.468 65.243,5.468L187.94,5.468C221.8,5.468 249.289,32.809 249.289,66.485ZM241.621,66.485C241.621,37.019 217.567,13.095 187.94,13.095L65.243,13.095C35.616,13.095 11.562,37.019 11.562,66.485L11.562,188.52C11.562,217.987 35.616,241.911 65.243,241.911L187.94,241.911C217.567,241.911 241.621,217.987 241.621,188.52L241.621,66.485Z"/>
    </g>
    <g transform="matrix(2.56662,0,0,2.56662,-0.3309,-0.324483)">
        <path d="M84.5,40.957C65.293,21.789 34.082,21.789 14.875,40.957L6.168,49.707L15.5,59.039C25.082,68.621 37.707,73.414 50.293,73.414C62.875,73.414 75.5,68.621 85.125,59.039L93.832,50.289L84.5,40.957ZM37.582,50C37.582,43.168 43.164,37.582 50,37.582C56.832,37.582 62.418,43.164 62.418,50C62.418,56.832 56.836,62.418 50,62.418C43.168,62.418 37.582,56.836 37.582,50Z" style="fill-rule:nonzero;"/>
        <path d="M50,43.832C46.625,43.832 43.832,46.625 43.832,50C43.832,53.375 46.625,56.168 50,56.168C53.375,56.168 56.168,53.375 56.168,50C56.168,46.625 53.375,43.832 50,43.832Z" style="fill-rule:nonzero;"/>
    </g>
</svg>
