<?xml version="1.0" encoding="UTF-8" standalone="no"?><!DOCTYPE svg PUBLIC "-//W3C//DTD SVG 1.1//EN" "http://www.w3.org/Graphics/SVG/1.1/DTD/svg11.dtd"><svg width="100%" height="100%" viewBox="0 0 300 216" version="1.1" xmlns="http://www.w3.org/2000/svg" xmlns:xlink="http://www.w3.org/1999/xlink" xml:space="preserve" xmlns:serif="http://www.serif.com/" style="fill-rule:evenodd;clip-rule:evenodd;stroke-linejoin:round;stroke-miterlimit:2;"><path d="M299.378,151.285l-17.417,-115.723c-2.983,-20.496 -20.607,-35.674 -41.309,-35.561l-43.55,-0c-10.627,-0.014 -20.841,4.041 -28.567,11.327c-10.433,9.761 -26.655,9.761 -37.089,0c-7.726,-7.286 -17.94,-11.341 -28.566,-11.327l-43.66,-0c-20.661,-0.055 -38.229,15.108 -41.199,35.561l-17.418,115.723c-2.089,14.063 1.293,28.374 9.445,40.017c8.152,11.644 20.441,19.714 34.367,22.559c3.615,0.756 7.3,1.141 10.998,1.141c10.915,0.014 21.582,-3.162 30.711,-9.155c9.128,-5.98 16.29,-14.517 20.606,-24.539l14.668,-34.203l57.258,0l14.668,34.203c7.149,16.716 22.023,28.882 39.824,32.58c17.802,3.685 36.28,-1.567 49.487,-14.063c13.198,-12.496 19.452,-30.669 16.744,-48.65l-0.001,0.11Zm-196.017,-69.395l-15.328,-0l-0,15.369c-0,4.041 -3.272,7.327 -7.327,7.327c-4.056,-0 -7.327,-3.286 -7.327,-7.327l-0,-15.369l-15.37,-0c-4.041,-0 -7.327,-3.272 -7.327,-7.328c0,-4.055 3.286,-7.327 7.327,-7.327l15.37,0l-0,-15.437c-0,-4.056 3.271,-7.327 7.327,-7.327c4.055,-0 7.327,3.271 7.327,7.327l-0,15.437l15.328,0c4.055,0 7.327,3.272 7.327,7.327c-0,4.056 -3.272,7.328 -7.327,7.328Zm90.549,1.319c-4.344,0.014 -8.248,-2.584 -9.925,-6.571c-1.663,-4 -0.756,-8.619 2.296,-11.685c3.065,-3.065 7.671,-3.986 11.671,-2.337c4.014,1.65 6.626,5.554 6.626,9.898c-0.041,5.829 -4.77,10.544 -10.599,10.585l-0.069,0.11Zm22.367,22.367l-0.014,-0c-4.317,-0 -8.207,-2.598 -9.87,-6.585c-1.664,-3.987 -0.77,-8.578 2.268,-11.644c3.038,-3.079 7.63,-4.014 11.63,-2.392c4,1.622 6.64,5.485 6.681,9.802c-0,2.846 -1.127,5.567 -3.134,7.574c-2.007,2.007 -4.73,3.135 -7.575,3.135l0.014,0.11Zm-0,-44.719l-0.014,-0c-4.317,-0 -8.207,-2.598 -9.87,-6.585c-1.664,-3.987 -0.77,-8.578 2.268,-11.657c3.038,-3.066 7.63,-4.014 11.63,-2.392c4,1.622 6.64,5.498 6.681,9.815c-0,5.911 -4.798,10.709 -10.709,10.709l0.014,0.11Zm22.366,22.366l-0.013,-0.013c-4.331,0.013 -8.249,-2.585 -9.912,-6.572c-1.677,-4 -0.77,-8.619 2.296,-11.684c3.052,-3.066 7.657,-3.987 11.671,-2.337c4,1.649 6.612,5.553 6.612,9.897c-0.055,5.857 -4.811,10.572 -10.667,10.586l0.013,0.123Z" style="fill-rule:nonzero;"/></svg>