<?xml version="1.0" encoding="UTF-8" standalone="no"?>
<!DOCTYPE svg PUBLIC "-//W3C//DTD SVG 1.1//EN" "http://www.w3.org/Graphics/SVG/1.1/DTD/svg11.dtd">
<svg width="100%" height="100%" viewBox="0 0 534 534" version="1.1" xmlns="http://www.w3.org/2000/svg" xmlns:xlink="http://www.w3.org/1999/xlink" xml:space="preserve" xmlns:serif="http://www.serif.com/" style="fill-rule:evenodd;clip-rule:evenodd;stroke-linejoin:round;stroke-miterlimit:2;">
    <g>
        <circle cx="266.666" cy="266.666" r="260.416" style="fill:white;"/>
        <path d="M266.666,6.25C410.394,6.25 527.083,122.939 527.083,266.666C527.083,410.394 410.394,527.083 266.666,527.083C122.939,527.083 6.25,410.394 6.25,266.666C6.25,122.939 122.939,6.25 266.666,6.25Z"/>
        <g transform="matrix(0.899999,0,0,0.899999,27.0003,27.0004)">
            <path d="M252.044,90.84L203.164,129.955C192.891,138.194 183.582,150.757 176.386,164.642C171.934,163.371 167.33,162.506 162.501,162.506L110.416,162.506C81.781,162.506 58.333,185.954 58.333,214.591L58.333,318.757C58.333,347.392 81.781,370.84 110.416,370.84L162.501,370.84C167.33,370.84 171.934,369.923 176.386,368.704C183.582,382.591 192.891,395.153 203.164,403.341L252.044,442.454C274.398,460.359 292.709,451.559 292.709,422.923L292.709,110.423C292.709,81.788 274.398,72.989 252.044,90.84Z" style="fill:rgb(242,175,13);fill-rule:nonzero;"/>
            <path d="M362.416,200.298C354.557,192.973 342.145,193.379 334.823,201.264C327.448,209.147 327.906,221.507 335.789,228.882C335.992,229.036 355.805,248.515 355.373,270.184C355.167,282.033 348.937,293.121 336.349,303.955C328.185,310.975 327.268,323.335 334.314,331.472C338.18,335.999 343.622,338.288 349.115,338.288C353.641,338.288 358.17,336.712 361.856,333.559C383.042,315.299 393.977,294.241 394.435,270.894C395.195,231.273 363.763,201.517 362.416,200.298Z" style="fill:rgb(242,175,13);fill-rule:nonzero;"/>
            <path d="M405.471,127.921C396.062,122.579 384.158,125.988 378.895,135.397C373.63,144.806 376.988,156.707 386.399,161.999C413.711,177.309 435.938,225.524 435.938,269.572C435.938,311.078 414.169,355.785 386.399,371.348C376.988,376.587 373.63,388.489 378.895,397.9C382.482,404.309 389.093,407.918 395.958,407.918C399.164,407.918 402.469,407.106 405.471,405.426C451.12,379.843 475,317.739 475,269.572C475,218.507 451.12,153.451 405.471,127.921Z" style="fill:rgb(242,175,13);fill-rule:nonzero;"/>
        </g>
    </g>
</svg>
