<?xml version="1.0" encoding="UTF-8" standalone="no"?><!DOCTYPE svg PUBLIC "-//W3C//DTD SVG 1.1//EN" "http://www.w3.org/Graphics/SVG/1.1/DTD/svg11.dtd"><svg width="100%" height="100%" viewBox="0 0 75 75" version="1.1" xmlns="http://www.w3.org/2000/svg" xmlns:xlink="http://www.w3.org/1999/xlink" xml:space="preserve" xmlns:serif="http://www.serif.com/" style="fill-rule:evenodd;clip-rule:evenodd;stroke-linejoin:round;stroke-miterlimit:2;"><g><g><g><path d="M37.5,0c-20.684,0 -37.5,16.816 -37.5,37.5c0,20.684 16.816,37.5 37.5,37.5c20.684,0 37.5,-16.816 37.5,-37.5c0,-20.684 -16.816,-37.5 -37.5,-37.5l0,0Zm19.264,23.447l-9,20.685c-0.711,1.657 -2.053,2.921 -3.632,3.631l-20.684,9c-3.237,1.421 -6.632,-1.894 -5.132,-5.131l8.921,-20.764c0.711,-1.657 2.053,-2.921 3.632,-3.631l20.684,-9c3.316,-1.421 6.632,1.894 5.211,5.21Z" style="fill-rule:nonzero;"/><circle cx="37.5" cy="37.5" r="5.132"/></g></g></g></svg>