<?xml version="1.0" encoding="UTF-8" standalone="no"?><!DOCTYPE svg PUBLIC "-//W3C//DTD SVG 1.1//EN" "http://www.w3.org/Graphics/SVG/1.1/DTD/svg11.dtd"><svg width="100%" height="100%" viewBox="0 0 255 300" version="1.1" xmlns="http://www.w3.org/2000/svg" xmlns:xlink="http://www.w3.org/1999/xlink" xml:space="preserve" xmlns:serif="http://www.serif.com/" style="fill-rule:evenodd;clip-rule:evenodd;stroke-linejoin:round;stroke-miterlimit:2;"><g><path d="M255,127.443c0,-70.385 -57.084,-127.443 -127.5,-127.443c-70.416,0 -127.5,57.058 -127.5,127.443c0,60.638 42.382,111.348 99.142,124.241l28.358,48.316l28.359,-48.316c56.76,-12.894 99.141,-63.603 99.141,-124.241Z" style="fill-rule:nonzero;"/><path d="M113.938,198.861c-1.375,-0 -2.25,-0.625 -2.625,-1.875l-32.625,-126.938l0,-0.75c0,-1.125 0.688,-1.687 2.063,-1.687l23.812,-0c1.375,-0 2.188,0.687 2.438,2.062l18.937,87.188c0.125,0.5 0.313,0.75 0.563,0.75c0.25,-0 0.437,-0.25 0.562,-0.75l18.75,-87.188c0.25,-1.375 1.063,-2.062 2.438,-2.062l23.062,-0c1.75,-0 2.438,0.812 2.063,2.437l-33,126.938c-0.375,1.25 -1.25,1.875 -2.625,1.875l-23.813,-0Z" style="fill:#fff;fill-rule:nonzero;"/></g></svg>